{"glyphs":{"0":{"ha":551,"x_min":0,"x_max":0,"o":"m 210 606 b 146 579 210 606 164 585 b 213 506 146 575 178 506 b 246 521 222 506 231 511 b 306 535 256 526 278 535 b 428 346 372 535 428 492 b 210 -18 428 197 351 -18 b 79 182 110 -18 79 104 b 139 426 79 321 139 411 b 132 435 139 431 136 435 b 126 431 131 435 129 433 b 125 428 125 429 125 429 b 47 167 125 421 47 331 b 213 -67 47 94 72 -67 b 504 378 422 -67 504 221 b 297 625 504 490 447 625 b 210 606 267 625 238 618 z "},"1":{"ha":411,"x_min":0,"x_max":0,"o":"m 343 628 b 292 571 324 628 294 581 l 244 483 b 32 157 169 349 104 190 b 106 113 32 153 78 113 b 151 138 111 113 129 114 l 150 139 b 281 385 174 163 229 264 b 210 -42 251 172 210 -8 b 217 -49 210 -43 211 -49 b 331 392 221 -49 264 86 b 361 561 342 446 351 501 b 343 628 368 599 369 628 z "},"2":{"ha":613,"x_min":0,"x_max":0,"o":"m 442 357 b 436 358 440 357 438 358 b 431 351 432 358 431 356 b 433 346 431 350 432 347 l 436 343 b 514 189 436 339 514 304 b 281 -54 514 89 436 -54 b 122 96 197 -54 122 13 b 192 247 122 150 151 208 b 501 504 293 346 417 438 l 503 504 b 504 510 504 506 504 507 b 335 622 504 557 435 622 b 92 560 250 622 154 589 b 50 546 75 553 61 547 b 115 478 50 540 82 478 b 375 576 172 478 271 576 b 431 565 396 576 414 572 b 247 403 399 542 332 481 b 61 107 185 343 61 253 b 274 -103 61 -26 178 -103 b 542 178 458 -103 542 69 b 443 357 542 282 471 353 z "},"3":{"ha":629,"x_min":0,"x_max":0,"o":"m 381 422 b 557 594 426 453 501 514 b 513 624 549 622 517 624 b 176 535 393 624 265 575 l 175 535 b 147 519 165 529 157 524 b 106 501 132 510 115 503 b 174 438 106 497 140 438 b 215 451 183 438 194 440 l 215 453 b 465 554 226 457 350 528 l 461 549 b 308 393 332 378 308 415 b 319 385 308 383 318 385 b 383 399 324 385 346 399 b 521 240 472 399 521 331 b 308 19 521 114 425 19 b 160 157 197 19 160 94 b 174 232 160 181 164 206 l 175 232 b 176 249 176 236 176 242 b 86 315 176 318 94 307 b 88 300 86 311 88 307 b 71 165 88 240 71 250 b 294 -47 71 76 146 -47 b 563 221 456 -47 563 92 b 381 422 563 375 450 422 z "},"4":{"ha":538,"x_min":0,"x_max":0,"o":"m 461 8 b 374 13 439 8 410 10 b 429 167 392 64 408 128 l 428 167 b 429 182 429 171 429 175 b 339 244 429 242 343 240 b 340 229 339 240 340 235 b 322 14 340 172 326 140 b 133 31 267 18 204 21 b 101 74 113 38 101 51 b 208 289 101 140 164 226 b 382 515 268 374 328 449 b 393 549 389 528 393 539 b 331 619 393 582 333 619 b 300 558 326 603 307 569 b 56 129 281 521 133 358 b 49 81 51 117 49 101 b 172 -21 49 -26 168 -21 b 321 -17 226 -21 276 -19 b 319 -81 319 -43 319 -64 b 329 -106 319 -97 319 -104 b 365 -15 340 -106 339 -93 b 499 0 449 -11 499 -12 b 496 7 499 3 497 6 b 493 8 494 8 494 8 z "},"5":{"ha":615,"x_min":0,"x_max":0,"o":"m 378 407 b 322 411 369 407 351 408 b 203 465 294 418 214 406 b 292 556 207 536 243 556 b 453 529 344 556 408 529 l 454 529 b 528 622 543 529 518 613 b 504 621 524 621 517 621 b 269 625 419 621 368 618 b 171 542 260 619 204 640 b 153 474 167 521 153 501 b 271 382 153 392 249 382 b 381 389 331 382 363 389 b 517 249 408 389 517 369 b 303 19 517 136 424 19 b 143 186 203 19 143 103 b 168 290 143 226 156 264 l 169 290 b 176 325 175 306 176 315 b 103 393 176 365 110 393 b 58 211 96 300 58 322 b 296 -44 58 89 132 -44 b 553 232 458 -44 553 117 b 378 407 553 406 400 407 z "},"6":{"ha":593,"x_min":0,"x_max":0,"o":"m 301 424 b 278 421 292 424 288 422 b 367 549 321 475 367 517 b 304 619 367 582 306 619 b 111 318 286 564 226 529 b 71 160 94 275 71 221 b 274 -46 71 36 167 -46 b 535 219 425 -46 535 85 b 338 429 535 353 433 429 b 301 424 322 429 313 428 z m 485 183 b 283 15 469 90 376 15 b 146 133 210 15 146 67 b 247 382 146 228 193 310 b 321 393 271 389 296 393 b 489 226 432 393 489 326 b 485 183 489 211 488 197 z "},"7":{"ha":543,"x_min":0,"x_max":0,"o":"m 446 633 b 326 650 404 644 364 650 b 114 611 247 650 175 629 l 85 603 b 40 596 69 599 50 596 b 108 515 43 590 61 515 b 324 569 131 515 181 554 b 357 572 333 571 344 572 b 432 561 386 572 417 567 b 371 439 417 522 394 482 b 96 -35 253 221 96 -14 b 97 -39 96 -36 96 -37 b 104 -43 99 -42 100 -43 b 449 456 104 -36 224 101 b 504 572 468 486 504 538 b 446 633 504 611 464 622 z "},"8":{"ha":564,"x_min":0,"x_max":0,"o":"m 357 442 b 294 513 331 458 294 481 b 374 568 294 529 317 568 b 432 518 419 568 432 542 b 428 494 432 507 429 500 b 425 488 426 490 426 489 l 425 486 b 428 479 425 485 426 483 b 432 474 429 475 431 474 b 431 475 431 474 431 474 b 461 531 431 478 461 474 b 357 621 461 567 433 621 b 218 499 301 621 218 586 b 288 378 218 443 256 410 l 289 378 b 433 199 311 356 433 308 b 269 14 433 100 386 14 b 115 176 174 14 115 94 b 128 236 115 197 119 217 b 243 379 161 360 243 369 b 238 386 243 383 242 386 b 135 315 235 386 183 382 b 81 156 108 278 81 221 b 283 -43 81 69 149 -43 b 510 214 413 -43 510 46 b 357 442 510 328 418 399 z "},"9":{"ha":549,"x_min":0,"x_max":0,"o":"m 314 618 b 49 350 153 618 49 489 b 250 160 49 253 111 160 b 281 161 261 160 271 160 b 90 -22 215 90 147 32 b 67 -40 82 -29 74 -35 b 31 -65 54 -50 40 -61 b 106 -115 31 -68 72 -115 b 142 -100 111 -115 125 -115 b 146 -97 143 -99 144 -97 l 147 -96 b 360 129 176 -69 258 11 b 501 432 415 196 501 303 b 314 618 501 550 406 614 z m 400 318 b 296 190 379 279 333 201 b 257 188 283 189 272 188 b 90 347 186 188 90 222 b 297 561 90 460 181 561 b 435 438 386 561 435 506 b 400 318 435 397 421 356 z "},"N":{"ha":844,"x_min":0,"x_max":0,"o":"m 924 540 b 882 575 918 556 899 565 b 850 589 872 579 861 585 b 839 543 849 576 844 561 l 829 514 b 664 -8 835 525 664 71 b 607 183 632 35 607 94 b 672 447 607 283 640 382 b 671 449 672 449 672 449 b 683 493 675 461 683 482 b 599 553 683 508 600 553 b 589 500 597 540 593 518 b 581 467 586 490 583 479 l 581 465 b 504 228 569 428 538 328 b 224 -37 464 106 399 -37 b 47 171 96 -37 47 64 b 115 356 47 243 61 290 b 282 440 158 407 228 440 b 344 406 311 440 332 429 b 431 449 364 410 431 419 b 290 508 396 464 365 508 b 13 160 135 501 13 338 b 240 -87 13 -6 103 -87 b 553 172 401 -87 486 17 b 721 -68 582 26 638 -67 b 921 488 721 15 872 406 b 924 540 928 504 933 525 z "},"L":{"ha":278,"x_min":0,"x_max":0,"o":"m 1508 -22 b 1411 -83 1485 -46 1451 -65 b 1061 -144 1340 -115 1232 -144 b 465 -50 854 -144 656 -96 b 336 -18 424 -39 381 -28 b 88 19 260 -1 167 15 b 151 100 106 46 128 68 b 364 490 229 204 313 385 b 371 522 369 503 371 513 b 294 592 371 567 301 588 b 28 19 242 435 142 140 l 29 21 b 26 19 29 19 28 19 l 24 19 b -239 -117 8 19 -239 -15 b -178 -147 -239 -132 -232 -147 b 42 -31 -131 -147 -58 -126 l 43 -37 b 51 -36 44 -37 47 -37 b 76 -35 57 -36 64 -35 b 449 -121 125 -35 235 -47 b 1054 -247 449 -122 761 -247 b 1458 -149 1097 -247 1333 -244 b 1486 -124 1468 -142 1478 -133 b 1514 -56 1501 -108 1514 -85 b 1508 -22 1514 -44 1513 -33 z m -208 -112 b -112 -53 -203 -81 -157 -64 b -25 -39 -86 -46 -57 -42 b -208 -112 -67 -76 -154 -136 z "},"A":{"ha":822,"x_min":0,"x_max":0,"o":"m 128 -8 b 217 -40 156 -29 185 -40 b 435 115 310 -40 394 44 b 547 300 469 176 510 239 b 638 290 581 296 615 290 b 603 93 619 231 603 167 b 707 -3 603 39 664 -3 b 724 0 711 -3 717 -1 b 854 76 825 19 850 76 l 854 75 b 844 83 854 79 849 83 b 769 42 840 83 832 68 b 717 31 754 38 738 31 b 647 101 668 31 647 64 b 704 285 647 153 678 228 b 850 263 751 281 813 289 b 851 285 850 269 850 278 b 854 329 853 297 854 314 b 746 372 854 351 842 372 b 844 550 779 439 844 518 b 808 604 844 599 831 604 b 517 382 753 604 613 536 b 204 365 383 382 265 372 b 22 189 117 354 22 299 b 128 -8 22 115 63 36 z m 715 490 b 668 378 700 458 683 421 b 604 381 647 379 626 379 b 715 490 640 428 678 464 z m 167 322 b 249 326 194 325 222 326 b 474 308 326 326 400 318 b 217 15 407 193 332 15 b 65 190 146 15 65 99 b 167 322 65 251 101 313 z "},"B":{"ha":619,"x_min":0,"x_max":0,"o":"m 443 60 b 376 63 422 61 403 63 b 221 -3 343 63 221 60 b 322 -62 221 -37 274 -62 b 496 36 388 -62 450 -18 b 526 33 511 35 519 33 b 531 35 528 33 529 33 b 535 43 532 36 535 38 b 531 49 535 44 533 46 b 528 50 529 50 529 50 b 526 49 528 49 528 49 b 510 53 524 49 518 50 b 606 249 549 103 606 189 b 521 346 606 303 582 325 b 561 444 542 368 561 411 b 364 599 561 546 465 599 b 310 594 344 599 326 597 l 311 596 b 31 450 135 567 38 465 b 26 440 29 447 28 444 b 24 417 25 433 24 425 b 68 342 24 394 31 368 b 232 476 75 342 103 406 b 396 522 272 492 325 522 b 507 439 440 522 507 501 b 475 356 507 410 493 378 b 389 363 446 361 417 363 b 304 357 360 363 332 361 b 322 414 322 394 322 397 b 244 482 322 460 251 478 b 233 436 244 471 239 453 l 224 407 b 194 336 214 383 204 363 b 118 311 168 332 118 326 b 157 236 118 293 147 236 b 113 50 139 185 113 85 b 169 -10 113 1 164 -10 b 178 58 169 19 174 42 b 186 83 181 68 183 76 b 260 260 204 126 233 197 b 436 283 306 269 369 283 b 536 250 501 283 536 271 b 443 60 536 204 481 108 z m 300 -17 b 256 0 271 -8 256 -3 b 424 39 256 21 374 39 b 300 -17 383 0 343 -17 z "},"D":{"ha":686,"x_min":0,"x_max":0,"o":"m 58 342 b 293 511 67 342 100 429 b 407 529 326 522 364 529 b 601 317 510 529 601 450 b 554 154 601 261 586 204 b 243 -36 489 26 360 -36 b 103 10 192 -36 103 -17 b 144 24 103 19 118 22 b 176 -3 150 8 164 3 b 199 -10 183 -7 192 -8 b 200 18 199 0 199 8 b 257 1 228 11 250 1 b 265 10 261 1 265 4 b 261 15 265 11 264 13 l 258 18 l 258 17 b 203 39 254 17 232 29 b 344 381 208 90 313 328 b 351 413 350 393 351 403 b 272 482 351 460 282 479 b 261 436 272 471 267 453 l 251 407 b 140 46 240 361 140 143 b 76 8 119 46 76 36 b 267 -75 76 -51 193 -75 b 668 332 446 -75 668 93 b 383 614 668 500 536 614 b 92 513 271 614 165 557 l 90 513 b 13 417 19 464 13 456 b 58 342 13 396 21 368 z "},"E":{"ha":824,"x_min":0,"x_max":0,"o":"m 921 608 b 707 560 911 611 861 560 b 553 574 669 560 618 564 b 369 592 499 581 438 592 b 144 533 297 592 221 578 b 17 279 54 468 17 372 b 213 39 17 86 146 39 b 283 56 272 39 283 51 b 274 64 283 65 272 64 b 231 58 269 64 254 58 b 56 261 143 58 56 128 b 339 522 56 447 196 522 b 488 504 389 522 439 515 b 393 406 456 482 422 449 b 382 404 389 406 386 404 l 382 406 b 310 419 372 406 324 410 b 308 406 308 415 308 410 l 308 376 b 351 333 308 356 311 333 b 306 160 325 283 306 225 b 515 -72 306 39 386 -72 b 851 226 667 -72 851 107 b 843 233 851 231 849 233 b 836 231 840 233 838 232 b 835 228 835 229 835 229 b 504 -19 835 218 744 -8 b 375 143 415 -12 375 64 b 447 332 375 214 410 283 b 608 331 501 332 560 331 b 689 333 663 331 685 332 l 689 332 l 692 333 b 696 343 694 336 696 339 b 693 351 696 347 694 350 l 692 351 b 504 397 692 357 594 378 b 574 442 521 413 547 429 b 619 464 589 449 604 457 b 617 479 619 468 618 472 b 753 467 665 472 713 467 b 907 494 842 467 894 485 b 921 510 913 499 917 504 b 936 556 928 519 936 535 b 921 608 936 571 931 589 z "},"F":{"ha":533,"x_min":0,"x_max":0,"o":"m 758 551 b 708 549 747 547 731 549 b 371 579 640 549 524 579 b 147 522 299 579 224 567 b 19 269 57 457 19 363 b 100 69 19 186 50 110 b 96 40 99 60 96 51 b 235 -65 96 -10 158 -65 b 488 219 378 -65 443 107 b 557 392 514 279 535 338 b 707 393 626 390 706 394 l 708 392 l 711 394 b 714 403 713 396 714 399 b 713 411 714 407 714 410 l 711 413 l 710 413 b 583 450 701 417 643 435 b 596 472 588 460 592 465 b 754 456 650 463 708 456 b 908 483 843 456 896 474 b 922 499 914 488 918 493 b 938 544 929 508 938 524 b 933 571 936 554 935 563 b 921 597 929 583 926 597 b 758 551 914 597 869 563 z m 490 464 b 463 463 489 464 478 463 b 381 479 436 463 403 464 b 379 463 379 474 379 468 l 379 433 b 468 393 379 407 385 393 b 340 54 436 293 400 164 b 221 -22 311 0 265 -22 b 124 53 167 -22 124 10 b 215 29 156 32 188 29 b 286 47 285 29 286 42 b 275 53 285 51 282 53 l 274 53 l 275 53 b 232 49 271 53 256 49 b 128 82 211 49 158 51 b 151 128 138 108 151 124 b 143 138 151 132 147 138 b 111 97 147 138 133 142 b 58 250 78 135 58 190 b 342 511 58 436 196 511 b 500 492 396 511 450 501 b 490 464 496 482 494 474 z "},"G":{"ha":796,"x_min":0,"x_max":0,"o":"m 153 411 b 301 425 190 421 240 425 b 188 121 240 342 188 232 b 356 -71 188 43 222 -71 b 397 -67 369 -71 383 -69 b 346 -142 374 -74 346 -99 b 428 -207 346 -208 421 -207 b 547 -132 465 -207 519 -187 b 757 -167 613 -149 679 -165 b 1022 -65 831 -167 1022 -140 b 990 17 1022 -35 996 17 b 896 -53 976 -1 907 -49 b 701 -101 857 -75 786 -101 b 572 -89 661 -101 615 -96 b 626 22 590 -54 608 -18 b 679 -1 643 4 663 -1 b 825 157 796 0 825 156 b 824 160 825 158 825 158 b 815 164 821 163 818 164 b 813 163 814 163 813 163 l 811 163 l 811 161 b 689 40 774 76 721 40 b 665 74 668 40 665 53 b 751 288 665 142 718 225 b 754 301 753 292 754 296 b 688 360 754 328 725 360 b 596 142 674 360 633 250 b 361 -26 569 93 475 -26 b 249 113 289 -26 249 18 b 397 413 249 228 314 336 b 622 361 458 397 528 361 b 781 483 674 361 781 388 b 681 590 781 568 703 583 b 606 599 658 594 633 599 b 360 490 528 599 443 567 b 233 507 317 500 276 507 b 68 479 163 507 68 482 b 19 439 28 464 19 449 b 40 360 18 411 40 360 b 153 411 64 379 133 404 z m 369 -140 b 425 -97 369 -107 401 -97 b 494 -115 449 -97 471 -106 b 417 -175 468 -161 440 -175 b 369 -140 389 -175 369 -164 z m 522 4 b 558 42 535 17 547 29 b 511 -78 542 3 528 -43 b 414 -64 478 -72 449 -64 b 400 -65 407 -64 403 -64 b 522 4 451 -54 494 -24 z m 689 476 b 696 457 693 469 696 463 b 624 407 696 435 650 411 b 456 457 568 407 511 433 b 601 507 504 489 556 507 b 689 476 636 507 665 497 z "},"H":{"ha":1004,"x_min":0,"x_max":0,"o":"m 689 203 b 690 206 689 204 689 204 b 854 143 742 174 808 143 b 842 63 847 108 843 82 b 839 35 840 53 839 43 b 869 3 843 18 857 8 b 894 -6 876 -1 885 -4 b 926 139 894 26 906 78 b 1024 165 992 143 1024 156 b 1013 169 1022 168 1019 169 b 933 158 1004 169 1013 163 b 1010 344 957 224 986 290 b 1050 435 1024 375 1038 406 b 1057 471 1054 447 1057 460 b 965 538 1057 511 972 533 b 967 529 967 536 967 533 b 958 488 967 518 963 503 l 950 463 b 860 165 901 336 875 238 b 703 231 814 175 754 193 b 826 513 751 332 788 429 b 840 563 836 533 840 547 b 758 631 840 608 769 626 b 724 511 758 600 728 531 b 632 282 703 465 676 382 b 278 483 517 367 404 483 b 29 193 108 483 29 353 b 328 -76 29 3 175 -76 b 689 203 528 -76 615 64 z m 301 442 b 618 253 404 442 540 306 b 319 -4 556 128 481 -4 b 85 199 188 -4 85 61 b 301 442 85 339 161 442 z "},"I":{"ha":583,"x_min":0,"x_max":0,"o":"m 817 596 b 365 565 800 533 468 565 b 19 319 214 565 19 499 b 169 176 19 194 131 176 b 239 196 218 181 239 190 b 231 206 239 206 229 206 b 181 199 226 206 210 199 b 57 311 103 199 57 239 b 321 499 57 444 201 499 b 551 465 403 499 474 475 b 418 81 529 369 460 238 b 408 26 413 57 408 39 b 413 -6 408 -8 410 1 b 208 -29 314 -6 208 -18 b 211 -40 208 -35 210 -39 b 214 -42 213 -42 213 -42 b 226 -40 214 -40 218 -40 b 543 -136 276 -40 476 -62 b 579 -51 546 -136 579 -68 b 465 -14 569 -46 522 -24 b 626 388 471 50 578 296 b 633 419 631 397 633 408 b 618 457 633 449 628 447 b 640 456 625 456 633 456 b 803 483 735 456 788 474 b 817 499 808 488 813 492 b 832 544 824 508 832 524 b 817 596 832 561 826 578 z "},"J":{"ha":1157,"x_min":0,"x_max":0,"o":"m 104 181 b 274 217 131 192 189 217 b 468 169 335 217 392 196 b 750 -67 479 21 606 -67 b 988 39 840 -67 928 -32 b 1215 488 1111 193 1151 367 b 1206 500 1215 492 1213 496 b 1307 489 1240 493 1275 489 b 1474 518 1403 489 1458 508 b 1488 533 1479 522 1483 528 b 1503 579 1494 543 1503 558 b 1488 631 1503 579 1499 632 b 1254 583 1475 631 1417 583 b 1035 600 1189 583 1128 600 b 715 460 924 600 782 575 b 690 461 706 461 700 461 b 469 238 611 461 492 388 b 242 297 397 271 321 297 b 19 235 146 297 31 263 b 17 213 15 229 17 219 b 25 169 17 197 21 182 b 33 147 28 163 31 154 b 75 168 40 153 60 161 z m 776 465 b 986 532 832 514 908 532 b 1128 515 1036 532 1079 525 l 1124 511 l 1124 510 b 1014 228 1107 476 1071 365 b 738 -7 969 110 876 -7 b 517 150 615 -7 543 56 b 644 125 560 135 599 125 b 826 207 711 125 789 146 b 904 226 881 207 904 221 b 894 235 904 236 896 235 b 839 229 890 235 871 229 b 856 292 850 251 856 272 b 760 449 856 368 825 428 z m 747 432 b 825 319 774 425 825 389 b 799 236 825 292 817 263 b 722 343 747 253 722 283 b 747 432 722 375 731 404 z m 701 440 b 703 438 703 439 703 438 b 682 351 690 410 682 379 b 781 214 682 279 732 226 b 657 175 749 182 714 175 b 508 224 631 175 508 197 b 701 440 508 329 594 436 z "},"K":{"ha":586,"x_min":0,"x_max":0,"o":"m 13 390 b 81 385 17 390 43 385 b 228 418 121 385 174 392 b 93 -6 168 274 93 46 b 150 -65 93 -54 144 -65 b 168 28 150 -6 167 28 b 349 467 196 94 315 407 b 369 526 371 510 369 507 b 290 597 369 572 299 593 b 172 444 290 561 268 496 b 10 397 90 393 10 417 l 10 392 b 11 390 10 390 10 390 z m 332 289 b 229 122 293 257 229 199 b 246 64 229 101 235 82 b 644 -147 328 -51 517 -147 b 825 -68 764 -147 825 -72 b 817 -61 825 -64 822 -61 b 813 -62 815 -61 814 -62 l 811 -62 b 660 -118 811 -60 765 -118 b 289 119 583 -118 289 -4 b 503 325 289 207 458 296 b 719 542 565 363 719 467 b 653 624 719 563 713 606 b 469 400 644 624 635 529 l 469 399 b 332 289 426 367 381 332 z "},"P":{"ha":613,"x_min":0,"x_max":0,"o":"m 131 167 b 144 161 135 165 139 163 b 106 -6 125 104 106 24 b 163 -65 106 -54 157 -65 b 171 3 163 -36 167 -14 b 179 28 174 13 176 21 b 225 138 190 54 207 94 b 299 131 251 133 275 131 b 658 382 432 131 585 217 b 675 456 668 403 675 429 b 425 599 675 589 476 599 b 47 453 201 599 54 464 b 42 443 46 450 43 447 b 38 417 39 436 38 426 b 81 343 38 396 47 369 b 311 497 88 343 126 424 b 451 522 351 510 397 522 b 613 451 507 522 613 501 b 576 347 613 425 597 388 b 274 164 513 224 385 164 b 238 167 261 164 250 165 b 325 383 319 371 325 357 b 247 451 325 426 254 447 b 236 406 247 440 242 422 l 226 376 b 153 186 208 333 179 268 b 22 275 56 219 28 275 b 14 269 18 275 14 274 b 15 265 14 268 14 267 b 17 264 15 264 15 264 b 131 167 17 265 38 208 z "},"Q":{"ha":647,"x_min":0,"x_max":0,"o":"m 604 -31 b 554 -40 600 -31 582 -40 b 457 -18 528 -40 494 -35 b 622 322 563 57 622 219 b 328 600 622 483 501 600 b 151 553 261 600 213 579 b 94 528 135 543 110 532 b 165 467 94 524 136 467 b 208 481 169 467 196 468 b 344 511 221 486 276 511 b 544 315 414 511 544 478 b 396 15 544 207 492 75 b 217 88 344 50 285 88 b 142 68 168 88 142 72 b 144 58 142 64 143 60 b 149 58 146 57 147 57 b 158 60 151 58 154 58 b 183 61 164 60 172 61 b 340 -8 229 61 283 49 b 263 -17 318 -18 289 -17 b 76 172 146 -17 76 63 b 181 399 76 261 126 344 b 349 471 236 454 299 471 b 489 429 435 471 485 429 b 497 435 493 429 497 431 b 493 442 497 436 496 439 b 489 444 492 443 490 443 b 339 494 485 444 435 494 b 276 488 321 494 299 492 b 36 165 176 469 36 328 b 276 -72 36 14 139 -72 b 390 -51 317 -72 354 -65 b 578 -125 444 -92 511 -125 b 654 -106 618 -125 642 -115 b 669 -85 661 -100 667 -93 b 675 -60 674 -78 675 -69 b 668 -19 675 -44 672 -32 b 663 1 667 -12 664 -6 b 604 -31 650 -8 619 -21 z "},"R":{"ha":593,"x_min":0,"x_max":0,"o":"m 86 53 b 143 -4 86 7 138 -4 b 161 89 143 18 161 88 b 178 142 161 97 171 135 b 642 -131 304 0 426 -137 b 743 -14 756 -126 779 -50 b 626 -42 706 -42 675 -42 b 263 131 503 -42 344 29 b 285 129 269 131 278 129 b 644 382 419 129 574 215 b 663 457 654 403 663 431 b 413 599 663 589 463 599 b 76 492 269 599 129 529 l 75 492 b 25 417 36 460 25 460 b 68 343 25 396 35 369 b 194 449 74 343 97 393 b 183 403 194 438 189 419 l 174 374 b 115 199 156 308 131 271 b 10 275 39 214 18 275 b 1 268 4 275 1 272 l 1 265 b 3 264 1 264 1 264 b 108 171 4 265 24 213 b 86 53 99 128 86 92 z m 253 319 b 274 379 275 363 274 360 b 196 449 274 419 208 449 b 438 522 249 479 336 522 b 578 453 496 522 578 501 b 542 347 578 426 563 388 b 263 165 479 225 374 165 b 189 175 240 165 204 165 b 253 319 214 240 226 267 z "},"S":{"ha":610,"x_min":0,"x_max":0,"o":"m 657 33 b 660 36 658 33 658 35 b 664 44 663 39 664 42 b 658 50 664 49 663 50 b 576 17 636 50 660 17 b 513 36 554 17 535 25 b 553 171 542 79 553 122 b 482 482 553 290 482 411 b 496 531 482 503 496 518 b 424 608 496 569 435 604 b 235 290 418 542 357 431 b 131 335 207 311 169 335 b 8 164 58 335 8 236 b 282 -69 8 29 125 -69 b 499 19 360 -69 444 -46 b 571 -1 514 3 550 -1 b 657 33 614 -1 650 18 z m 119 290 b 133 293 125 292 129 293 b 207 263 154 293 181 281 b 61 147 147 206 89 165 b 60 164 60 151 60 157 b 119 290 60 218 82 269 z m 267 -3 b 64 132 172 -3 86 40 b 239 239 90 143 161 176 b 438 60 322 171 372 108 b 267 -3 394 11 326 -3 z m 453 79 b 267 263 396 125 340 194 b 403 406 315 306 360 354 b 472 154 418 339 472 253 b 453 79 472 128 465 103 z "},"T":{"ha":426,"x_min":0,"x_max":0,"o":"m -79 275 b 108 53 -79 97 49 53 b 176 63 147 53 167 57 b 188 72 182 65 186 68 b 182 78 186 75 185 76 b 176 79 181 79 178 79 b 132 74 172 79 158 74 b -42 260 43 74 -42 135 b 242 514 -42 422 92 514 b 382 497 290 514 336 507 b 376 476 378 488 378 482 b 374 468 375 472 375 469 b 272 121 319 333 290 210 b 249 -24 263 69 254 21 b 279 -57 253 -40 267 -51 b 304 -65 286 -61 294 -64 b 474 442 304 28 465 442 b 481 478 479 457 481 468 b 658 457 543 465 607 457 b 810 486 743 457 797 476 b 824 501 815 490 819 496 b 839 547 831 511 839 526 b 822 600 838 547 832 600 b 615 550 811 600 760 550 b 458 564 578 550 526 554 b 274 582 404 571 342 582 b -79 275 83 582 -79 475 z "},"U":{"ha":744,"x_min":0,"x_max":0,"o":"m 718 64 b 760 156 750 108 760 150 b 747 163 760 157 757 163 b 744 161 746 161 744 161 b 624 40 707 76 656 40 b 600 69 608 40 600 50 b 768 492 600 165 742 432 b 775 525 772 501 775 513 b 696 594 775 569 703 590 b 685 549 696 583 690 565 b 675 518 681 539 678 528 b 543 117 657 485 558 253 b 542 113 542 115 542 114 b 393 15 510 58 454 15 b 251 121 326 15 251 64 b 375 456 256 242 331 368 b 381 489 379 468 381 479 b 306 556 381 533 313 551 b 285 482 307 535 285 483 b 169 367 282 474 246 403 b 8 319 90 314 8 338 b 79 306 8 310 25 306 b 224 339 119 306 174 317 b 176 144 208 290 176 226 b 378 -43 176 26 283 -43 b 549 38 450 -43 511 -11 b 614 -1 569 6 588 -1 b 718 64 671 -1 700 42 z "},"V":{"ha":618,"x_min":0,"x_max":0,"o":"m 628 453 b 604 571 628 575 608 558 b 554 583 594 581 569 583 b 528 582 544 583 535 582 b 517 581 524 581 521 581 b 326 47 576 515 507 47 b 286 438 247 47 240 415 b 358 424 304 431 332 424 b 453 506 413 424 453 460 b 285 503 453 601 329 583 b 75 600 222 536 153 600 b 11 507 -1 600 22 514 b 38 510 21 508 29 510 b 258 447 126 510 121 496 b 339 -11 210 372 168 -11 b 628 453 517 -11 628 328 z m 414 507 b 383 468 414 486 404 468 b 308 492 363 468 329 481 b 414 507 315 539 414 583 z "},"X":{"ha":1032,"x_min":0,"x_max":0,"o":"m 1061 238 b 1054 239 1057 238 1056 239 b 997 147 1049 239 1049 228 b 815 -3 961 104 917 -3 b 746 110 772 18 756 60 b 1010 521 864 247 947 394 b 1014 549 1014 525 1014 544 b 944 614 1014 585 949 614 b 921 549 944 603 921 560 b 743 236 900 508 844 385 b 735 222 739 231 736 226 b 728 543 725 338 735 439 l 726 543 b 657 594 726 594 681 594 b 633 593 647 594 639 593 b 624 592 629 592 626 592 b 638 513 633 565 638 539 b 572 374 631 483 615 424 b 451 294 528 311 468 294 l 449 294 b 447 296 447 294 447 294 b 446 294 446 296 446 296 b 444 289 446 293 444 293 b 443 285 443 288 443 286 b 475 278 443 286 440 278 b 646 381 515 278 583 307 b 678 149 650 315 657 236 b 315 -76 588 36 465 -76 b 69 151 144 -76 69 18 b 311 415 69 343 233 415 b 414 404 365 415 408 404 b 422 410 418 404 422 406 b 418 417 422 411 421 414 l 415 419 b 300 438 411 419 365 438 b 28 132 211 438 28 349 b 314 -135 28 -42 169 -135 b 700 60 469 -135 604 -50 b 824 -51 715 31 738 -51 b 990 81 915 -51 968 43 b 1065 231 1036 153 1064 221 b 1061 238 1065 233 1064 236 z "},"Y":{"ha":607,"x_min":0,"x_max":0,"o":"m 736 -33 b 507 -104 722 -51 629 -104 b 381 -90 467 -104 424 -97 b 435 21 399 -56 417 -19 b 488 -3 451 3 471 -3 b 633 158 611 -3 631 158 l 633 156 b 624 161 633 160 631 161 b 621 160 622 160 621 160 l 619 160 b 497 39 582 75 529 39 b 474 74 476 39 474 53 b 539 286 474 150 539 282 b 546 321 544 301 546 311 b 472 388 546 358 479 388 b 425 194 468 319 447 281 b 231 -1 399 132 371 -1 b 79 129 151 -1 79 50 b 189 414 79 215 147 335 b 228 488 201 438 217 467 l 228 489 b 146 567 228 538 158 563 b 135 521 146 556 140 538 l 125 492 b 18 154 92 410 18 240 b 217 -43 14 25 100 -43 b 354 11 271 -43 321 -24 b 319 -81 344 -21 331 -54 b 222 -65 286 -71 257 -61 b 149 -143 204 -69 149 -81 b 238 -210 149 -211 228 -210 b 356 -135 281 -210 318 -189 b 568 -168 418 -151 490 -168 b 800 -101 656 -168 740 -150 l 800 -100 l 801 -99 b 739 -33 801 -93 750 -33 z m 178 -142 b 232 -100 178 -110 208 -100 b 303 -117 256 -100 276 -107 b 225 -176 276 -162 249 -176 b 178 -142 201 -176 178 -165 z "},"Z":{"ha":656,"x_min":0,"x_max":0,"o":"m 425 593 b 357 599 403 597 379 599 b 143 525 275 599 194 576 b 58 386 79 457 58 394 b 68 379 58 385 61 379 b 72 381 69 379 71 379 b 74 383 74 382 74 382 l 74 382 b 311 550 74 382 138 550 b 604 471 413 550 506 510 b 176 11 433 382 329 171 b 53 24 136 17 88 31 b 28 -11 36 17 28 6 b 110 -100 28 -56 76 -100 b 218 -36 154 -100 192 -62 b 411 -49 285 -46 350 -49 b 697 97 601 -49 697 79 b 690 104 697 101 694 104 b 683 101 688 104 685 103 l 681 99 b 424 -18 681 103 618 -18 b 251 0 369 -18 313 -10 b 738 419 408 172 564 415 b 954 408 794 404 901 382 b 974 424 961 413 968 417 b 993 478 983 435 993 451 b 985 518 993 482 992 518 b 854 499 975 518 938 499 b 425 593 764 499 649 549 z m 107 -46 b 85 -21 101 -46 92 -36 b 139 -25 100 -21 118 -25 b 107 -46 129 -35 118 -46 z "},"t":{"ha":161,"x_min":0,"x_max":0,"o":"m 410 375 b 547 346 517 368 536 346 b 557 385 554 346 557 381 b 531 440 557 413 543 429 b 506 456 524 447 515 451 b 381 468 490 460 447 468 b 206 453 332 468 274 464 b 221 496 215 469 221 481 b 144 568 221 533 161 568 b 90 428 146 568 113 476 b -15 406 40 415 11 406 b -53 433 -40 406 -53 415 b -29 461 -53 456 -39 461 b -17 457 -22 461 -21 457 b -12 461 -14 457 -12 458 b -36 472 -12 465 -19 472 b -78 418 -64 457 -78 439 b 11 356 -78 386 -43 356 b 61 364 26 356 43 357 b -26 61 21 269 -26 139 b 47 -22 -26 -6 19 -22 b 194 131 163 -21 194 131 l 192 133 b 183 138 189 136 186 138 b 181 136 182 136 181 136 b 56 19 142 53 88 19 b 33 46 40 19 33 28 b 163 374 33 113 110 269 b 290 381 211 378 253 381 b 410 375 339 381 378 379 z "},"k":{"ha":301,"x_min":0,"x_max":0,"o":"m 521 -53 b 383 1 483 -25 432 -8 b 299 14 356 7 328 11 l 289 14 b 178 213 235 79 185 151 b 289 350 214 275 288 350 b 281 358 289 351 286 354 b 274 363 278 360 275 361 b 33 69 275 363 144 272 b 204 514 33 190 204 485 b 126 582 204 551 133 582 b 103 500 126 556 106 503 b -26 64 76 443 -26 183 b 21 -3 -26 0 4 -3 b 118 125 67 -3 63 36 b 207 13 136 93 164 53 b -97 -54 65 -6 -75 -50 b -424 -121 -210 -86 -329 -106 b -581 -140 -478 -129 -531 -136 b -739 -149 -637 -146 -690 -149 b -1092 -87 -911 -149 -1021 -119 b -1189 -26 -1132 -69 -1165 -50 b -1194 -60 -1193 -37 -1194 -49 b -1167 -129 -1194 -92 -1182 -112 b -1137 -154 -1158 -139 -1149 -147 b -740 -254 -1015 -243 -819 -254 b -82 -126 -514 -254 -82 -135 b 263 -43 163 -64 229 -43 b 279 -49 272 -43 274 -44 b 507 -162 390 -149 468 -162 b 560 -131 556 -162 560 -143 b 521 -53 560 -100 547 -74 z m 479 -131 b 432 -110 464 -125 447 -118 b 347 -44 406 -94 371 -74 b 436 -58 381 -47 410 -51 b 533 -121 481 -69 526 -89 b 526 -129 532 -124 529 -126 b 504 -136 522 -133 514 -136 b 479 -131 496 -136 488 -135 z "},"u":{"ha":343,"x_min":0,"x_max":0,"o":"m 364 161 b 356 160 360 161 356 161 b 250 6 322 56 276 6 b 231 51 238 6 231 21 b 321 290 231 138 321 247 b 253 361 321 324 258 361 b 236 318 249 350 243 333 b 224 290 232 308 228 300 b 169 136 211 264 182 201 b 72 35 138 63 99 35 b 46 74 50 35 46 51 b 154 346 46 167 154 304 b 90 417 154 379 94 417 b 71 374 86 406 81 389 b 56 346 67 364 61 356 l 57 346 b -18 100 39 307 -18 190 b 54 -3 -18 33 19 -3 b 164 79 104 -3 142 42 b 240 -29 164 14 203 -29 b 371 156 322 -29 371 142 b 364 161 371 157 368 158 z "},"h":{"ha":319,"x_min":0,"x_max":0,"o":"m 344 161 b 336 160 340 161 336 161 b 231 39 299 75 257 39 b 210 81 213 39 210 60 b 289 274 210 153 267 214 b 293 293 292 282 293 289 b 229 363 293 325 233 363 b 18 14 240 338 174 294 b 17 13 17 14 17 14 b 206 497 17 111 179 443 b 213 533 210 510 213 522 b 135 600 213 575 139 596 b 124 554 135 589 129 571 b 114 524 119 544 117 533 b -43 0 97 479 -43 138 b 3 -64 -43 -49 -19 -64 b 50 -28 24 -64 43 -50 b 157 193 61 14 117 119 b 143 107 147 161 143 140 b 219 -3 143 47 176 -3 b 351 156 297 -3 351 144 b 344 161 351 157 349 158 z "},"a":{"ha":367,"x_min":0,"x_max":0,"o":"m 381 161 b 372 160 376 161 372 161 b 267 6 339 56 293 6 b 247 51 254 6 247 21 b 322 249 247 118 292 193 l 324 249 b 338 292 331 264 338 276 b 269 361 338 324 275 361 b 264 344 268 357 268 350 b 183 372 243 357 224 372 b -19 135 67 372 -19 240 b 83 -3 -19 92 -1 -3 b 183 49 144 -3 168 31 b 257 -29 196 -8 229 -29 b 388 156 339 -29 388 142 b 381 161 388 157 385 158 z m 181 75 b 99 29 158 47 131 29 b 29 119 38 29 29 81 b 169 290 29 201 108 290 b 226 258 192 290 210 276 b 181 75 206 210 181 138 z "},"b":{"ha":307,"x_min":0,"x_max":0,"o":"m 326 150 b 321 153 322 151 321 153 b 221 92 321 153 297 114 b 282 256 247 125 282 178 b 178 367 282 300 260 367 b 138 361 163 367 149 365 b 200 511 181 450 200 485 b 122 579 200 554 129 575 b 111 533 122 568 117 550 l 101 504 b -28 81 79 456 -28 208 b 49 -4 -28 13 4 -4 b 172 46 115 -4 139 28 b 329 144 272 53 329 140 b 326 150 329 146 328 149 z m 32 50 b 40 114 32 65 33 86 b 111 51 50 92 76 51 b 56 35 90 40 71 35 b 32 50 40 35 33 40 z m 157 85 b 92 157 108 90 92 119 b 194 294 92 207 128 294 b 224 225 208 294 224 288 b 157 85 224 171 190 113 z "},"c":{"ha":299,"x_min":0,"x_max":0,"o":"m 321 165 b 251 90 299 165 321 144 b 125 29 226 68 175 29 b 38 128 75 29 38 71 b 158 301 38 213 119 301 b 175 279 169 301 175 294 b 171 251 175 271 174 261 b 136 182 167 233 157 208 b 158 174 143 179 151 176 b 201 165 171 169 186 165 b 264 274 247 165 264 233 b 172 388 264 286 254 388 b 147 383 164 388 156 386 b -18 129 32 344 -18 244 b 106 -11 -18 67 22 -11 b 325 160 188 -11 307 78 b 321 165 325 163 324 164 z "},"l":{"ha":122,"x_min":0,"x_max":0,"o":"m 156 651 b 144 606 156 640 150 622 b 135 575 140 596 138 585 b -40 -3 75 433 -40 114 b 7 -60 -40 -60 -7 -60 b 150 124 47 -60 150 89 b 147 131 150 128 149 129 b 132 119 144 131 139 126 b 24 -3 72 24 33 -3 b 19 8 19 -3 19 4 b 219 533 19 103 179 447 b 235 583 226 549 235 567 b 156 651 235 621 163 651 z "},"e":{"ha":296,"x_min":0,"x_max":0,"o":"m 304 125 b 299 126 303 126 300 126 b 236 67 292 126 292 108 b 125 21 213 50 165 21 b 36 122 71 21 36 71 b 44 172 36 139 39 156 b 104 156 54 163 75 156 b 263 301 190 156 263 224 b 169 381 263 340 229 381 b -17 135 74 381 -17 260 b 113 -15 -17 78 15 -15 b 258 51 178 -15 226 18 b 307 119 276 71 293 93 b 304 125 307 121 306 124 z m 85 254 b 156 300 111 288 138 300 b 175 282 168 300 175 294 b 68 192 175 251 124 192 b 50 193 58 192 53 192 b 85 254 60 215 72 236 z "},"-":{"ha":344,"x_min":0,"x_max":0,"o":"m 90 296 b 44 272 50 296 44 282 b 46 256 44 264 44 258 l 49 247 b 131 256 60 253 93 256 b 222 253 163 256 196 254 b 267 250 238 251 253 251 b 296 271 293 250 296 260 b 294 296 296 281 294 289 l 294 308 b 188 297 289 301 238 299 b 90 296 158 296 125 296 z "},".":{"ha":149,"x_min":0,"x_max":0,"o":"m 103 22 b 76 31 99 26 86 29 b 57 32 69 32 64 32 b 60 22 58 28 60 25 b 46 -33 60 -17 46 -21 b 78 -56 46 -57 68 -56 l 86 -56 b 85 -46 85 -54 85 -50 b 106 13 85 -6 106 3 b 104 19 106 17 104 18 b 103 22 103 21 103 21 z "},"/":{"ha":314,"x_min":0,"x_max":0,"o":"m 274 514 b 192 599 300 589 226 579 b 188 539 192 583 189 556 b 38 -53 182 493 49 -8 b 39 -56 38 -54 38 -54 b 44 -58 40 -57 43 -58 b 50 -60 46 -60 49 -60 b 274 514 43 -60 196 260 z "}," ":{"ha":167,"x_min":0,"x_max":0,"o":""},"!":{"ha":333,"x_min":0,"x_max":0,"o":"m 97 71 b 71 78 93 75 81 76 b 51 79 64 79 58 79 b 54 68 53 75 54 72 b 42 14 54 28 42 26 b 81 -8 42 -11 71 -8 b 79 0 79 -7 79 -4 b 101 58 79 40 101 51 b 99 68 101 61 100 64 b 97 71 97 69 97 69 z m 207 694 b 199 600 207 629 203 615 b 74 92 176 485 74 125 b 75 89 74 90 74 90 b 82 88 76 88 78 88 b 275 550 79 88 157 213 l 288 593 b 207 694 310 672 225 699 z "},"+":{"ha":331,"x_min":0,"x_max":0,"o":"m 196 299 b 218 358 215 353 218 351 b 182 399 218 400 185 392 b 150 297 182 381 168 342 b 46 283 29 290 61 294 b 40 264 42 279 40 272 b 42 253 40 258 40 254 b 43 247 42 251 42 249 b 132 256 54 254 92 256 b 100 183 94 167 100 192 b 149 147 100 157 140 147 b 179 254 149 157 163 203 b 242 251 206 253 226 253 b 264 250 250 250 257 250 b 290 272 288 250 290 261 b 289 296 290 282 289 289 l 289 308 b 196 299 283 303 242 300 z "},"?":{"ha":493,"x_min":0,"x_max":0,"o":"m 119 79 b 122 69 121 75 122 72 b 108 13 122 29 108 25 b 139 -10 108 -8 126 -10 l 147 -10 b 146 -1 146 -8 146 -6 b 169 60 146 39 169 50 b 119 79 169 78 125 79 z m 210 663 b 65 443 107 629 65 533 b 93 329 65 415 78 329 l 93 328 b 133 293 111 299 124 293 b 213 322 164 292 213 322 b 153 458 181 349 153 388 b 286 603 153 513 182 603 b 393 496 338 603 393 569 b 253 285 393 419 319 340 b 140 94 168 211 140 113 b 149 86 140 90 142 86 b 219 210 171 86 135 110 b 446 504 272 274 446 354 b 272 672 446 600 369 672 b 210 663 249 672 228 669 z "},"C":{"ha":497,"x_min":0,"x_max":0,"o":"m 182 -68 b 389 11 265 -68 344 -22 b 536 228 499 94 536 201 b 529 236 536 232 535 236 b 438 97 504 236 531 210 b 196 -22 386 35 289 -22 b 82 119 103 -22 82 40 b 432 508 82 315 285 508 b 468 504 444 508 457 507 b 425 390 435 447 425 406 b 438 354 426 376 431 364 b 513 314 449 336 469 318 l 515 315 b 594 515 526 326 513 385 b 596 524 596 517 596 519 b 433 599 592 561 539 599 b 17 125 211 599 13 344 b 182 -68 17 18 86 -68 z "},"O":{"ha":614,"x_min":0,"x_max":0,"o":"m 178 -47 b 428 31 289 -65 361 -29 b 444 28 435 29 440 28 b 643 176 593 17 643 165 b 635 185 643 178 642 185 b 572 107 625 185 628 163 b 464 67 544 81 514 63 b 581 349 513 126 569 239 b 474 567 585 431 571 560 b 271 294 350 578 282 415 b 376 49 264 211 281 93 l 393 40 b 215 -22 342 -14 286 -28 b 67 178 132 -15 56 43 b 286 497 78 325 190 457 b 313 529 307 513 313 524 b 288 610 317 556 289 610 b 250 583 281 603 265 593 b 222 567 240 578 232 572 b 8 175 111 500 1 331 b 178 -47 13 64 65 -25 z m 329 254 b 458 483 336 351 403 488 b 507 304 479 483 518 444 b 421 75 500 225 456 128 b 329 254 347 107 322 182 z "},"W":{"ha":788,"x_min":0,"x_max":0,"o":"m 1056 604 b 774 518 950 600 863 561 b 732 589 768 540 760 583 b 679 525 711 593 679 569 b 743 465 679 501 699 471 b 518 36 760 326 635 3 b 471 121 497 39 474 101 b 621 439 539 181 621 318 b 551 524 621 474 600 524 b 385 122 457 524 333 311 b 303 65 374 107 343 65 l 300 65 b 256 169 293 65 249 86 b 419 506 267 336 401 475 b 401 522 424 511 413 522 b 21 246 240 522 21 418 b 96 151 21 206 44 151 b 194 254 164 151 183 231 b 169 263 206 282 176 275 b 108 224 158 239 113 208 b 107 239 107 226 107 232 b 360 486 107 378 286 468 b 197 139 301 421 197 269 b 299 3 197 81 226 3 b 403 61 346 3 385 43 b 521 -46 421 32 458 -46 b 782 465 739 -46 793 336 b 1043 507 879 476 942 507 b 1135 489 1114 507 1122 489 b 1140 492 1136 489 1139 490 l 1142 493 b 1146 525 1144 506 1146 515 b 1056 604 1146 585 1099 604 z m 718 533 b 729 556 718 546 718 550 b 740 513 743 560 743 513 b 718 533 729 514 718 521 z m 460 214 b 542 426 460 285 503 419 b 461 193 575 415 494 253 b 460 214 460 208 460 199 z "},"d":{"ha":375,"x_min":0,"x_max":0,"o":"m 361 63 b 403 154 393 107 403 147 l 400 157 b 390 161 397 160 394 161 b 388 160 389 160 388 160 b 267 39 350 75 299 39 b 243 68 251 39 243 49 b 406 478 243 161 381 419 b 413 513 411 493 413 503 b 335 579 413 553 342 575 b 324 533 335 568 329 550 l 314 504 b 253 356 303 478 281 426 b 185 371 236 365 213 371 b -17 135 61 371 -17 224 b 92 -6 -17 81 10 -6 b 192 42 140 -6 176 26 b 257 -3 201 7 236 -3 b 361 63 313 -3 346 40 z m 186 67 b 110 28 168 40 139 28 b 31 106 69 28 31 51 b 172 289 31 186 99 289 b 224 271 192 289 208 283 b 185 86 201 206 185 138 b 186 67 185 76 185 71 z "},"f":{"ha":203,"x_min":0,"x_max":0,"o":"m 22 -212 b 182 1 64 -208 182 -142 b 108 228 182 101 135 174 b 157 344 125 271 140 307 b 244 351 206 346 244 346 b 165 363 244 356 228 357 b 225 513 188 418 225 479 b 147 579 225 553 154 575 b 136 533 147 568 142 550 l 126 504 b 75 372 111 467 99 433 b 0 382 49 376 22 378 b -8 375 -4 382 -8 379 b 44 286 -8 369 10 346 b -61 -122 11 186 -61 0 b 8 -214 -61 -156 -58 -214 b 22 -212 14 -214 18 -214 z m 38 336 b 35 340 36 338 35 339 b 64 343 35 344 40 343 b 54 314 60 333 58 324 b 38 336 49 324 43 329 z m 10 -92 b 94 192 25 3 60 103 b 140 21 117 143 140 83 b 25 -158 140 -35 103 -158 b 7 -128 10 -158 7 -144 b 10 -92 7 -115 8 -103 z "},"g":{"ha":332,"x_min":0,"x_max":0,"o":"m 344 346 b 311 383 340 361 326 374 b 283 400 303 389 293 394 b 263 354 282 383 272 369 b 181 372 242 364 218 372 b -17 129 60 365 -17 232 b 93 -7 -12 81 4 -7 b 154 10 121 -7 138 3 b 149 -14 153 0 150 -4 b -1 -26 89 -18 43 -19 b -56 -101 -12 -31 -56 -46 b -51 -132 -56 -111 -54 -121 b 143 -89 -51 -115 76 -96 b 250 -189 153 -149 201 -189 b 354 -89 306 -189 354 -137 b 200 -14 354 -25 272 -18 b 340 313 239 101 296 218 b 346 336 344 321 346 329 b 344 346 346 340 346 344 z m 281 -72 b 322 -97 313 -72 322 -82 b 258 -160 322 -140 282 -160 b 185 -90 224 -160 194 -128 b 171 -87 181 -89 176 -89 b 161 -86 167 -87 164 -87 b 281 -72 217 -82 249 -72 z m 163 49 b 104 26 163 38 122 26 b 33 121 43 26 33 78 b 176 289 33 204 111 289 b 232 269 197 289 217 282 b 163 49 211 210 183 132 z "},"i":{"ha":171,"x_min":0,"x_max":0,"o":"m 53 -3 b 199 154 169 -3 199 158 l 196 157 b 186 161 193 160 190 161 b 183 160 185 160 183 160 b 63 39 146 75 94 39 b 39 74 42 39 39 53 b 111 263 39 133 79 203 b 126 299 121 275 126 288 b 60 374 126 354 56 367 b -25 99 53 338 -25 210 b 53 -3 -25 47 -1 -3 z m 179 415 b 183 433 182 421 183 426 b 139 476 183 457 165 476 b 93 426 113 476 93 456 b 129 381 93 403 103 381 b 179 415 150 381 169 394 z "},"j":{"ha":176,"x_min":0,"x_max":0,"o":"m 0 200 b -82 -10 -24 139 -50 64 l -82 -11 b -150 -8 -108 -7 -129 -8 b -257 -93 -172 -8 -257 -21 b -174 -165 -257 -149 -207 -165 b -49 -81 -125 -165 -92 -142 b 94 -125 3 -96 54 -114 b 103 -53 99 -125 103 -92 b -14 -17 103 -24 71 -28 b 6 24 -7 -4 -1 8 b 61 -3 22 3 43 -3 b 206 154 176 -4 204 156 l 203 157 b 194 161 200 160 197 161 b 192 160 193 160 192 160 b 71 39 154 75 103 39 b 47 75 50 39 47 53 b 132 285 47 142 99 222 b 135 301 133 290 135 296 b 68 374 135 351 65 367 b 0 200 44 314 26 267 z m -107 -74 b -186 -133 -133 -119 -160 -133 b -229 -101 -208 -133 -229 -128 b -168 -53 -229 -69 -200 -53 b -103 -65 -147 -53 -125 -58 l -104 -65 l -71 -75 b -107 -74 -86 -71 -94 -74 z m 106 450 b 100 425 101 440 100 435 b 136 381 100 403 113 381 b 190 432 163 381 190 406 b 147 476 190 456 174 476 b 106 450 126 476 113 468 z "},"m":{"ha":476,"x_min":0,"x_max":0,"o":"m 226 28 b 340 256 229 42 300 183 b 304 99 322 206 304 147 b 376 -3 304 32 342 -3 b 508 154 458 -3 508 147 l 506 157 b 496 161 503 160 500 161 b 493 160 494 160 493 160 b 388 39 456 75 414 39 b 369 75 372 39 369 54 b 474 347 369 167 474 294 b 411 414 474 376 413 414 b 194 68 393 336 350 349 b 303 344 199 179 303 292 b 239 414 303 376 243 414 b 221 372 235 401 229 388 b 206 344 217 363 211 354 b 35 69 183 322 122 229 b 156 353 35 161 126 294 b 124 369 144 360 133 365 b 71 388 106 379 86 388 b -29 85 65 388 -29 224 b 26 -3 -29 28 -17 -3 b 150 210 64 -3 94 92 b 129 88 138 169 129 126 b 186 -4 129 32 142 -4 b 226 28 193 -4 217 -1 z "},"n":{"ha":339,"x_min":0,"x_max":0,"o":"m 181 47 b 233 19 197 25 217 19 b 364 176 315 19 364 171 l 361 179 b 353 183 358 182 356 183 b 350 182 351 182 350 182 b 244 61 313 97 268 61 b 225 97 228 61 225 76 b 318 313 225 172 289 250 b 328 344 325 319 328 339 b 264 414 328 376 268 414 b 31 33 247 339 215 385 b 29 50 29 38 29 43 b 136 317 29 160 136 254 b 72 388 136 346 85 388 b 44 315 68 375 56 338 b -33 54 38 300 -33 176 b 22 -39 -33 -1 -22 -39 b 72 15 51 -39 72 14 b 192 256 83 58 158 193 b 161 121 174 206 161 171 b 181 47 161 90 168 65 z "},"o":{"ha":300,"x_min":0,"x_max":0,"o":"m 283 272 b 203 361 283 299 261 361 b 142 339 174 361 157 350 b 118 364 126 363 122 364 b -17 126 96 357 -17 269 b 90 -3 -17 72 14 -3 b 183 44 136 -3 174 32 b 218 38 196 40 207 38 b 313 100 290 38 313 85 b 308 107 313 104 311 107 b 236 75 297 107 269 75 b 219 78 229 75 224 76 b 285 246 249 115 285 179 b 283 272 285 256 285 263 z m 94 32 b 36 107 57 36 36 57 b 92 233 36 157 60 200 b 89 199 90 222 89 210 b 149 61 89 149 100 90 b 94 32 122 38 104 32 z m 213 175 b 179 96 206 142 194 117 b 151 164 157 103 151 143 b 207 272 151 207 179 272 b 218 213 218 268 218 240 b 213 175 218 200 217 186 z "},"p":{"ha":318,"x_min":0,"x_max":0,"o":"m 183 119 b 156 121 174 121 165 121 b 24 43 117 121 24 115 b 92 -10 24 17 43 -10 b 236 88 149 -10 208 32 b 332 74 285 83 321 74 b 339 82 336 74 339 76 b 249 110 339 86 338 92 b 293 274 265 144 293 214 b 217 358 293 322 274 358 b 133 331 178 358 139 335 b 60 394 125 365 68 394 b -124 -199 60 374 -112 -119 b -112 -206 -125 -199 -122 -206 b 74 190 -111 -206 -32 -24 b 218 276 89 213 113 265 b 225 261 222 276 225 271 b 183 119 225 233 201 156 z m 68 49 b 167 90 68 71 122 90 b 82 38 151 64 106 38 b 68 49 72 38 68 42 z "},"q":{"ha":350,"x_min":0,"x_max":0,"o":"m 306 -111 b 343 -106 329 -110 343 -111 b 307 -99 343 -100 344 -103 b 310 -69 308 -89 310 -81 b 260 117 310 3 289 57 b 340 303 288 190 311 243 b 357 339 347 318 357 332 b 290 414 357 372 296 414 b 260 350 286 393 271 367 b 178 371 239 361 215 371 b -18 136 53 371 -18 215 b 83 -3 -18 92 0 -3 b 138 8 106 -3 122 1 b 119 -78 128 -21 124 -50 b 89 -74 108 -76 99 -75 b 88 -81 88 -74 88 -76 b 97 -114 88 -110 88 -114 b 118 -112 101 -114 108 -112 b 199 -212 124 -179 139 -212 b 306 -111 250 -212 293 -193 z m 247 83 b 275 -62 264 40 275 -14 b 274 -96 275 -75 275 -86 b 190 -86 247 -92 219 -90 b 247 83 201 -31 210 -6 z m 143 40 b 100 31 131 35 117 31 b 32 119 39 31 32 79 b 169 289 32 200 107 289 b 226 263 193 289 211 278 b 149 43 208 208 171 115 b 143 40 149 43 147 42 z m 214 -175 b 183 -144 188 -175 183 -162 b 186 -112 183 -135 185 -124 b 271 -111 214 -112 244 -112 b 214 -175 264 -149 246 -175 z "},"r":{"ha":294,"x_min":0,"x_max":0,"o":"m 318 160 b 313 161 317 161 314 161 b 310 160 311 160 310 160 b 204 39 272 75 231 39 b 186 75 189 39 186 54 b 292 346 186 168 292 290 b 228 414 292 378 231 414 b 207 363 224 399 217 379 b 190 333 203 353 197 343 l 151 333 b 89 343 125 333 89 338 b 99 360 93 347 93 347 b 40 375 99 361 72 368 b 19 378 31 379 24 378 b 3 347 4 378 3 368 b 43 274 3 326 11 294 b -8 113 32 219 7 150 b -10 111 -10 113 -10 113 l -10 107 b 1 100 -10 103 -6 100 b 78 258 13 100 8 115 b 101 257 85 257 92 257 b 160 263 122 257 139 258 b 121 99 139 213 121 153 b 193 -3 121 32 158 -3 b 325 154 275 -3 325 147 b 318 160 325 156 322 157 z "},"s":{"ha":272,"x_min":0,"x_max":0,"o":"m 213 354 b 147 414 201 390 147 410 l 149 414 b 122 357 136 414 122 374 b 8 153 93 307 43 210 b -32 97 -18 149 -32 125 b 92 -10 -32 53 8 -10 b 247 133 165 -10 247 39 b 211 331 238 218 213 286 b 214 343 213 336 214 339 b 213 354 214 347 214 351 z m 82 42 b 1 103 36 42 1 82 b 96 157 1 146 96 146 b 93 165 96 161 94 164 b 90 167 92 167 92 167 b 29 158 92 165 67 168 b 126 296 57 197 94 250 b 175 122 138 249 175 165 b 82 42 175 72 125 42 z "},"ˆ":{"ha":388,"x_min":0,"x_max":0,"o":"m 344 408 b 274 425 338 410 306 410 b 206 500 218 447 247 500 b 110 456 189 500 174 456 b 47 467 78 456 51 465 l 42 458 b 132 426 42 453 85 426 b 197 446 154 426 176 431 b 307 392 225 403 274 392 b 349 400 342 392 349 396 b 344 407 349 401 344 403 z "},"¨":{"ha":253,"x_min":0,"x_max":0,"o":"m 154 513 b 157 500 156 508 157 504 b 146 440 157 456 146 451 b 178 413 146 414 167 413 l 186 413 b 185 425 185 415 185 419 b 206 490 185 471 206 481 b 154 513 206 514 157 510 z m 57 513 b 60 499 58 508 60 504 b 49 439 60 447 49 454 b 81 413 49 415 69 413 l 89 413 b 88 424 88 414 88 418 b 97 461 88 436 90 449 b 107 479 100 468 103 474 b 108 489 108 481 108 485 b 57 513 108 517 61 508 z "},"˜":{"ha":349,"x_min":0,"x_max":0,"o":"m 128 475 b 226 447 154 465 192 447 b 299 504 281 447 299 483 b 253 535 299 532 264 535 b 203 492 249 492 226 492 b 76 508 174 492 121 508 b 36 467 56 508 36 493 b 39 454 36 463 38 458 l 43 450 b 50 454 50 450 49 454 b 49 465 50 456 49 460 b 75 489 49 471 51 489 b 128 475 93 489 107 481 z "},"¸":{"ha":228,"x_min":0,"x_max":0,"o":"m 143 58 b 139 60 142 58 140 58 b 136 61 138 60 138 61 b 135 63 135 61 135 61 b 126 38 135 61 126 53 b 154 -12 126 22 154 -1 b 138 -29 154 -24 149 -29 b 121 -26 133 -29 128 -28 l 122 -26 b 107 -21 115 -26 111 -25 b 89 17 97 -15 93 -6 b 43 -14 82 13 43 15 b 122 -71 43 -18 49 -71 b 186 -15 149 -71 179 -61 b 178 8 186 -6 188 -1 b 143 58 139 38 143 39 z "},"´":{"ha":310,"x_min":0,"x_max":0,"o":"m 242 540 b 215 504 236 531 221 511 b 110 457 204 493 176 457 b 43 468 78 457 49 467 l 42 467 b 40 464 42 465 40 465 l 38 458 b 151 428 38 453 93 428 b 272 492 189 428 272 444 b 242 540 272 508 246 540 z "},"÷":{"ha":332,"x_min":0,"x_max":0,"o":"m 83 296 b 40 264 32 296 40 269 b 42 253 40 258 40 254 b 43 247 42 251 42 249 b 125 256 54 253 88 256 b 217 253 157 256 190 254 b 261 250 232 251 247 251 b 290 282 293 250 290 267 b 289 300 290 288 289 294 b 288 308 288 304 288 307 b 181 297 282 301 231 299 b 83 296 151 296 118 296 z m 169 322 b 204 314 179 313 199 314 b 203 324 203 315 203 319 b 213 356 203 333 206 344 b 222 372 215 361 218 367 b 224 382 224 375 224 378 b 175 403 224 406 178 400 b 176 393 176 401 176 397 b 164 336 176 351 164 347 b 167 325 164 332 165 329 b 169 322 168 324 168 322 z m 183 226 b 157 235 179 231 167 233 b 138 236 150 236 144 236 b 140 225 139 232 140 229 b 128 171 140 185 128 183 b 167 149 128 143 158 149 b 165 157 165 150 165 153 b 175 190 165 168 168 179 b 186 207 179 196 182 201 b 188 215 188 208 188 211 b 185 224 188 219 186 222 b 183 226 183 225 183 225 z "},"v":{"ha":311,"x_min":0,"x_max":0,"o":"m 319 144 b 303 143 318 144 313 143 b 250 158 288 143 267 146 b 289 322 261 183 289 267 b 256 376 289 354 279 376 b 181 251 190 369 181 276 b 214 163 181 214 193 183 b 93 51 188 118 150 51 b 51 108 61 51 51 75 b 142 347 51 207 142 288 b 81 414 142 376 85 414 b 47 343 74 393 57 360 b -17 121 26 311 -17 224 b 97 -4 -17 53 15 -4 b 244 142 169 -4 225 89 b 293 132 261 135 278 132 b 322 140 317 132 322 139 b 321 143 322 142 321 142 b 319 144 319 143 319 143 z m 224 181 b 208 236 214 201 208 215 b 247 328 208 260 225 328 b 260 307 256 328 260 321 b 224 181 260 275 239 218 z "},"w":{"ha":489,"x_min":0,"x_max":0,"o":"m 508 136 b 510 139 508 138 510 138 b 508 142 508 140 508 140 l 508 143 l 507 143 b 492 142 504 142 499 142 b 436 157 471 142 449 147 b 478 328 447 188 478 272 b 444 381 478 360 471 381 b 369 250 400 381 369 285 b 401 163 369 213 381 181 b 282 51 379 122 338 51 b 240 107 250 51 240 74 b 328 322 240 188 294 269 l 328 324 b 251 364 329 325 274 364 b 171 139 251 364 178 276 b 74 33 139 61 100 33 b 47 75 51 33 47 51 b 153 346 47 168 153 290 b 88 413 153 375 92 413 b -18 99 72 339 -18 254 b 56 -3 -18 32 21 -3 b 174 96 111 -3 153 57 b 285 -4 186 22 229 -4 b 432 142 361 -4 413 89 b 486 131 453 132 471 131 b 508 135 499 131 507 132 z m 407 188 b 396 236 400 201 396 218 b 435 328 396 260 413 328 b 446 307 442 328 446 321 b 411 181 446 275 422 201 b 407 188 410 185 408 183 z "},"x":{"ha":378,"x_min":0,"x_max":0,"o":"m 389 160 b 383 161 388 161 385 161 b 343 111 378 161 378 154 b 240 40 325 89 286 40 b 172 165 201 40 179 126 l 299 292 l 299 293 b 322 339 325 321 322 335 b 301 378 322 354 311 367 b 282 397 296 385 289 390 b 256 360 278 388 267 372 b 235 336 249 353 242 344 b 161 246 225 325 199 290 b 151 367 157 275 160 367 b 67 342 135 367 67 346 b 68 336 67 340 68 340 b 29 247 64 321 57 282 b -46 194 -12 183 -46 207 b -31 192 -46 193 -46 192 b 76 268 -3 192 44 218 b 100 169 82 240 89 207 b -101 -92 13 60 -101 -82 b -93 -99 -101 -96 -97 -99 b 121 114 -93 -97 -1 -8 b 239 -7 140 61 175 -7 b 343 64 296 -7 328 46 b 393 154 376 107 392 149 b 389 160 393 156 392 158 z "},"y":{"ha":382,"x_min":0,"x_max":0,"o":"m 396 160 b 390 161 394 161 392 161 b 388 160 389 160 388 160 b 265 39 350 75 297 39 b 242 74 244 39 242 51 b 301 239 242 136 268 179 b 311 272 308 251 311 263 b 249 346 311 310 275 333 b 193 194 244 322 226 306 b 75 33 156 76 107 33 b 49 75 53 33 49 51 b 153 344 49 165 153 304 b 88 413 153 376 93 413 l 57 340 b -17 99 35 300 -17 183 b 56 -3 -17 32 22 -3 b 132 35 85 -3 111 14 b 85 -11 121 7 122 -11 b 46 -10 72 -11 61 -10 b -64 -93 24 -10 -64 -21 b 22 -165 -64 -164 8 -165 b 147 -79 67 -165 110 -144 b 303 -117 203 -96 264 -117 b 371 -40 347 -117 371 -78 b 350 -42 367 -42 360 -42 b 181 -17 301 -42 247 -32 b 200 24 186 -4 194 8 b 257 -3 217 3 236 -3 b 401 156 375 -3 399 156 l 401 154 b 396 160 401 156 400 157 z m 88 -74 b 10 -135 61 -119 33 -135 b -36 -100 -12 -135 -36 -124 b 28 -54 -36 -67 -4 -54 b 90 -65 49 -56 69 -61 l 125 -74 l 118 -74 b 103 -72 114 -74 108 -72 b 88 -74 96 -72 90 -72 z "},"z":{"ha":340,"x_min":0,"x_max":0,"o":"m 290 163 b 272 165 286 164 282 164 b 128 38 226 165 128 139 b 92 32 115 33 104 32 b 26 83 60 32 26 46 b 304 310 26 185 294 279 b 307 328 306 314 307 319 b 299 369 307 343 303 357 b 292 392 296 376 293 385 b 163 353 260 360 213 353 b -6 372 107 353 21 361 b -7 363 -7 369 -7 367 l -7 338 b 42 289 -7 314 -7 289 b 158 317 63 289 114 301 b -22 126 107 282 38 225 b -28 94 -26 118 -28 107 b 68 -11 -28 43 13 -11 b 135 3 94 -11 117 -3 b 189 -62 150 -42 186 -62 b 192 -57 190 -62 192 -61 b 147 8 192 -56 157 -32 b 310 136 192 24 310 85 b 290 163 310 151 300 158 z m 147 44 b 253 129 158 99 210 128 b 258 122 257 128 258 125 b 147 44 258 89 174 56 z "},"'":{"ha":133,"x_min":0,"x_max":0,"o":"m 146 586 b 151 531 150 568 151 546 b 124 450 151 510 147 482 b 83 410 103 422 85 414 b 86 401 83 404 90 400 b 194 546 93 401 194 456 b 160 588 194 567 186 588 b 150 586 156 588 154 586 z "},"á":{"ha":367,"x_min":0,"x_max":0,"o":"m 381 161 b 372 160 376 161 372 161 b 267 6 339 56 293 6 b 247 51 254 6 247 21 b 322 249 247 118 292 193 l 324 249 b 338 292 331 264 338 276 b 269 361 338 324 275 361 b 264 344 268 357 268 350 b 183 372 243 357 224 372 b -19 135 67 372 -19 240 b 83 -3 -19 92 -1 -3 b 183 49 144 -3 168 31 b 257 -29 196 -8 229 -29 b 388 156 339 -29 388 142 b 381 161 388 157 385 158 z m 181 75 b 99 29 158 47 131 29 b 29 119 38 29 29 81 b 169 290 29 201 108 290 b 226 258 192 290 210 276 b 181 75 206 210 181 138 z m 336 540 b 310 504 331 531 315 511 b 204 457 299 493 271 457 b 138 468 172 457 143 467 l 136 467 b 135 464 136 465 135 465 l 132 458 b 246 428 132 453 188 428 b 367 492 283 428 367 444 b 336 540 367 508 340 540 z "},"â":{"ha":367,"x_min":0,"x_max":0,"o":"m 381 161 b 372 160 376 161 372 161 b 267 6 339 56 293 6 b 247 51 254 6 247 21 b 322 249 247 118 292 193 l 324 249 b 338 292 331 264 338 276 b 269 361 338 324 275 361 b 264 344 268 357 268 350 b 183 372 243 357 224 372 b -19 135 67 372 -19 240 b 83 -3 -19 92 -1 -3 b 183 49 144 -3 168 31 b 257 -29 196 -8 229 -29 b 388 156 339 -29 388 142 b 381 161 388 157 385 158 z m 181 75 b 99 29 158 47 131 29 b 29 119 38 29 29 81 b 169 290 29 201 108 290 b 226 258 192 290 210 276 b 181 75 206 210 181 138 z m 400 432 b 329 449 393 433 361 433 b 261 524 274 471 303 524 b 165 479 244 524 229 479 b 103 490 133 479 107 489 l 97 482 b 188 450 97 476 140 450 b 253 469 210 450 232 454 b 363 415 281 426 329 415 b 404 424 397 415 404 419 b 400 431 404 425 400 426 z "},"ã":{"ha":367,"x_min":0,"x_max":0,"o":"m 381 161 b 372 160 376 161 372 161 b 267 6 339 56 293 6 b 247 51 254 6 247 21 b 322 249 247 118 292 193 l 324 249 b 338 292 331 264 338 276 b 269 361 338 324 275 361 b 264 344 268 357 268 350 b 183 372 243 357 224 372 b -19 135 67 372 -19 240 b 83 -3 -19 92 -1 -3 b 183 49 144 -3 168 31 b 257 -29 196 -8 229 -29 b 388 156 339 -29 388 142 b 381 161 388 157 385 158 z m 181 75 b 99 29 158 47 131 29 b 29 119 38 29 29 81 b 169 290 29 201 108 290 b 226 258 192 290 210 276 b 181 75 206 210 181 138 z m 210 475 b 308 447 236 465 274 447 b 381 504 363 447 381 483 b 335 535 381 532 346 535 b 285 492 331 492 308 492 b 158 508 256 492 203 508 b 118 467 138 508 118 493 b 121 454 118 463 119 458 l 125 450 b 132 454 132 450 131 454 b 131 465 132 456 131 460 b 157 489 131 471 133 489 b 210 475 175 489 189 481 z "},"ä":{"ha":367,"x_min":0,"x_max":0,"o":"m 381 161 b 372 160 376 161 372 161 b 267 6 339 56 293 6 b 247 51 254 6 247 21 b 322 249 247 118 292 193 l 324 249 b 338 292 331 264 338 276 b 269 361 338 324 275 361 b 264 344 268 357 268 350 b 183 372 243 357 224 372 b -19 135 67 372 -19 240 b 83 -3 -19 92 -1 -3 b 183 49 144 -3 168 31 b 257 -29 196 -8 229 -29 b 388 156 339 -29 388 142 b 381 161 388 157 385 158 z m 181 75 b 99 29 158 47 131 29 b 29 119 38 29 29 81 b 169 290 29 201 108 290 b 226 258 192 290 210 276 b 181 75 206 210 181 138 z m 278 513 b 281 500 279 508 281 504 b 269 440 281 456 269 451 b 301 413 269 414 290 413 l 310 413 b 308 425 308 415 308 419 b 329 490 308 471 329 481 b 278 513 329 514 281 510 z m 181 513 b 183 499 182 508 183 504 b 172 439 183 447 172 454 b 204 413 172 415 193 413 l 213 413 b 211 424 211 414 211 418 b 221 461 211 436 214 449 b 231 479 224 468 226 474 b 232 489 232 481 232 485 b 181 513 232 517 185 508 z "},"`":{"ha":324,"x_min":0,"x_max":0,"o":"m 67 540 b 51 526 60 536 56 531 b 38 500 44 517 38 510 b 157 428 38 449 118 428 b 271 458 215 428 271 453 b 268 464 271 463 272 454 b 267 467 267 464 267 465 l 267 468 l 265 468 b 199 457 260 467 231 457 b 93 504 132 457 104 493 b 67 540 88 511 72 531 z "},"à":{"ha":367,"x_min":0,"x_max":0,"o":"m 381 161 b 372 160 376 161 372 161 b 267 6 339 56 293 6 b 247 51 254 6 247 21 b 322 249 247 118 292 193 l 324 249 b 338 292 331 264 338 276 b 269 361 338 324 275 361 b 264 344 268 357 268 350 b 183 372 243 357 224 372 b -19 135 67 372 -19 240 b 83 -3 -19 92 -1 -3 b 183 49 144 -3 168 31 b 257 -29 196 -8 229 -29 b 388 156 339 -29 388 142 b 381 161 388 157 385 158 z m 181 75 b 99 29 158 47 131 29 b 29 119 38 29 29 81 b 169 290 29 201 108 290 b 226 258 192 290 210 276 b 181 75 206 210 181 138 z m 161 540 b 146 526 154 536 150 531 b 132 500 139 517 132 510 b 251 428 132 449 213 428 b 365 458 310 428 365 453 b 363 464 365 463 367 454 b 361 467 361 464 361 465 l 361 468 l 360 468 b 293 457 354 467 325 457 b 188 504 226 457 199 493 b 161 540 182 511 167 531 z "},"è":{"ha":296,"x_min":0,"x_max":0,"o":"m 304 125 b 299 126 303 126 300 126 b 236 67 292 126 292 108 b 125 21 213 50 165 21 b 36 122 71 21 36 71 b 44 172 36 139 39 156 b 104 156 54 163 75 156 b 263 301 190 156 263 224 b 169 381 263 340 229 381 b -17 135 74 381 -17 260 b 113 -15 -17 78 15 -15 b 258 51 178 -15 226 18 b 307 119 276 71 293 93 b 304 125 307 121 306 124 z m 85 254 b 156 300 111 288 138 300 b 175 282 168 300 175 294 b 68 192 175 251 124 192 b 50 193 58 192 53 192 b 85 254 60 215 72 236 z m 111 540 b 96 526 104 536 100 531 b 82 500 89 517 82 510 b 201 428 82 449 163 428 b 315 458 260 428 315 453 b 313 464 315 463 317 454 b 311 467 311 464 311 465 l 311 468 l 310 468 b 243 457 304 467 275 457 b 138 504 176 457 149 493 b 111 540 132 511 117 531 z "},"é":{"ha":296,"x_min":0,"x_max":0,"o":"m 304 125 b 299 126 303 126 300 126 b 236 67 292 126 292 108 b 125 21 213 50 165 21 b 36 122 71 21 36 71 b 44 172 36 139 39 156 b 104 156 54 163 75 156 b 263 301 190 156 263 224 b 169 381 263 340 229 381 b -17 135 74 381 -17 260 b 113 -15 -17 78 15 -15 b 258 51 178 -15 226 18 b 307 119 276 71 293 93 b 304 125 307 121 306 124 z m 85 254 b 156 300 111 288 138 300 b 175 282 168 300 175 294 b 68 192 175 251 124 192 b 50 193 58 192 53 192 b 85 254 60 215 72 236 z m 286 540 b 260 504 281 531 265 511 b 154 457 249 493 221 457 b 88 468 122 457 93 467 l 86 467 b 85 464 86 465 85 465 l 82 458 b 196 428 82 453 138 428 b 317 492 233 428 317 444 b 286 540 317 508 290 540 z "},"ê":{"ha":296,"x_min":0,"x_max":0,"o":"m 304 125 b 299 126 303 126 300 126 b 236 67 292 126 292 108 b 125 21 213 50 165 21 b 36 122 71 21 36 71 b 44 172 36 139 39 156 b 104 156 54 163 75 156 b 263 301 190 156 263 224 b 169 381 263 340 229 381 b -17 135 74 381 -17 260 b 113 -15 -17 78 15 -15 b 258 51 178 -15 226 18 b 307 119 276 71 293 93 b 304 125 307 121 306 124 z m 85 254 b 156 300 111 288 138 300 b 175 282 168 300 175 294 b 68 192 175 251 124 192 b 50 193 58 192 53 192 b 85 254 60 215 72 236 z m 351 421 b 281 438 344 422 313 422 b 213 513 225 460 254 513 b 117 468 196 513 181 468 b 54 479 85 468 58 478 l 49 471 b 139 439 49 465 92 439 b 204 458 161 439 183 443 b 314 404 232 415 281 404 b 356 413 349 404 356 408 b 351 419 356 414 351 415 z "},"ë":{"ha":296,"x_min":0,"x_max":0,"o":"m 304 125 b 299 126 303 126 300 126 b 236 67 292 126 292 108 b 125 21 213 50 165 21 b 36 122 71 21 36 71 b 44 172 36 139 39 156 b 104 156 54 163 75 156 b 263 301 190 156 263 224 b 169 381 263 340 229 381 b -17 135 74 381 -17 260 b 113 -15 -17 78 15 -15 b 258 51 178 -15 226 18 b 307 119 276 71 293 93 b 304 125 307 121 306 124 z m 85 254 b 156 300 111 288 138 300 b 175 282 168 300 175 294 b 68 192 175 251 124 192 b 50 193 58 192 53 192 b 85 254 60 215 72 236 z m 226 513 b 229 500 228 508 229 504 b 218 440 229 456 218 451 b 250 413 218 414 239 413 l 258 413 b 257 425 257 415 257 419 b 278 490 257 471 278 481 b 226 513 278 514 229 510 z m 129 513 b 132 499 131 508 132 504 b 121 439 132 447 121 454 b 153 413 121 415 142 413 l 161 413 b 160 424 160 414 160 418 b 169 461 160 436 163 449 b 179 479 172 468 175 474 b 181 489 181 481 181 485 b 129 513 181 517 133 508 z "},"ì":{"ha":171,"x_min":0,"x_max":0,"o":"m -4 25 b 53 -3 13 3 35 -3 b 199 154 169 -3 199 158 l 196 157 b 186 161 193 160 190 161 b 183 160 185 160 183 160 b 63 39 146 75 94 39 b 39 74 42 39 39 53 b 111 263 39 133 79 203 l 113 263 b 126 299 122 276 126 289 b 60 374 126 354 56 367 b -25 99 53 338 -25 210 b -4 25 -25 67 -18 43 z m 22 540 b 7 526 15 536 11 531 b -7 500 0 517 -7 510 b 113 428 -7 449 74 428 b 226 458 171 428 226 453 b 224 464 226 463 228 454 b 222 467 222 464 222 465 l 222 468 l 221 468 b 154 457 215 467 186 457 b 49 504 88 457 60 493 b 22 540 43 511 28 531 z "},"í":{"ha":171,"x_min":0,"x_max":0,"o":"m -4 25 b 53 -3 13 3 35 -3 b 199 154 169 -3 199 158 l 196 157 b 186 161 193 160 190 161 b 183 160 185 160 183 160 b 63 39 146 75 94 39 b 39 74 42 39 39 53 b 111 263 39 133 79 203 l 113 263 b 126 299 122 276 126 289 b 60 374 126 354 56 367 b -25 99 53 338 -25 210 b -4 25 -25 67 -18 43 z m 196 540 b 169 504 190 531 175 511 b 64 457 158 493 131 457 b -3 468 32 457 3 467 l -4 467 b -6 464 -4 465 -6 465 l -8 458 b 106 428 -8 453 47 428 b 226 492 143 428 226 444 b 196 540 226 508 200 540 z "},"î":{"ha":171,"x_min":0,"x_max":0,"o":"m -4 25 b 53 -3 13 3 35 -3 b 199 154 169 -3 199 158 l 196 157 b 186 161 193 160 190 161 b 183 160 185 160 183 160 b 63 39 146 75 94 39 b 39 74 42 39 39 53 b 111 263 39 133 79 203 l 113 263 b 126 299 122 276 126 289 b 60 374 126 354 56 367 b -25 99 53 338 -25 210 b -4 25 -25 67 -18 43 z m 260 408 b 189 425 253 410 221 410 b 121 500 133 447 163 500 b 25 456 104 500 89 456 b -37 467 -7 456 -33 465 l -43 458 b 47 426 -43 453 0 426 b 113 446 69 426 92 431 b 222 392 140 403 189 392 b 264 400 257 392 264 396 b 260 407 264 401 260 403 z "},"ï":{"ha":171,"x_min":0,"x_max":0,"o":"m -4 25 b 53 -3 13 3 35 -3 b 199 154 169 -3 199 158 l 196 157 b 186 161 193 160 190 161 b 183 160 185 160 183 160 b 63 39 146 75 94 39 b 39 74 42 39 39 53 b 111 263 39 133 79 203 l 113 263 b 126 299 122 276 126 289 b 60 374 126 354 56 367 b -25 99 53 338 -25 210 b -4 25 -25 67 -18 43 z m 136 513 b 139 500 138 508 139 504 b 128 440 139 456 128 451 b 160 413 128 414 149 413 l 168 413 b 167 425 167 415 167 419 b 188 490 167 471 188 481 b 136 513 188 514 139 510 z m 39 513 b 42 499 40 508 42 504 b 31 439 42 447 31 454 b 63 413 31 415 51 413 l 71 413 b 69 424 69 414 69 418 b 79 461 69 436 72 449 b 89 479 82 468 85 474 b 90 489 90 481 90 485 b 39 513 90 517 43 508 z "},"ñ":{"ha":339,"x_min":0,"x_max":0,"o":"m 181 47 b 233 19 197 25 217 19 b 364 176 315 19 364 171 l 361 179 b 353 183 358 182 356 183 b 350 182 351 182 350 182 b 244 61 313 97 268 61 b 225 97 228 61 225 76 b 318 313 225 172 289 250 b 328 344 325 319 328 339 b 264 414 328 376 268 414 b 31 33 247 339 215 385 b 29 50 29 38 29 43 b 136 317 29 160 136 254 b 72 388 136 346 85 388 b 44 315 68 375 56 338 b -33 54 38 300 -33 176 b 22 -39 -33 -1 -22 -39 b 72 15 51 -39 72 14 b 192 256 83 58 158 193 b 161 121 174 206 161 171 b 181 47 161 90 168 65 z m 153 475 b 251 447 179 465 217 447 b 324 504 306 447 324 483 b 278 535 324 532 289 535 b 228 492 274 492 251 492 b 101 508 199 492 146 508 b 61 467 81 508 61 493 b 64 454 61 463 63 458 l 68 450 b 75 454 75 450 74 454 b 74 465 75 456 74 460 b 100 489 74 471 76 489 b 153 475 118 489 132 481 z "},"ò":{"ha":299,"x_min":0,"x_max":0,"o":"m 283 272 b 203 361 283 299 261 361 b 142 339 174 361 157 350 b 118 364 126 363 122 364 b -17 126 96 357 -17 269 b 90 -3 -17 72 14 -3 b 183 44 136 -3 174 32 b 218 38 196 40 207 38 b 313 100 290 38 313 85 b 308 107 313 104 311 107 b 236 75 297 107 269 75 b 219 78 229 75 224 76 b 285 246 249 115 285 179 b 283 272 285 256 285 263 z m 94 32 b 36 107 57 36 36 57 b 92 233 36 157 60 200 b 89 199 90 222 89 210 b 149 61 89 149 100 90 b 94 32 122 38 104 32 z m 213 175 b 179 96 206 142 194 117 b 151 164 157 103 151 143 b 207 272 151 207 179 272 b 218 213 218 268 218 240 b 213 175 218 200 217 186 z m 96 540 b 81 526 89 536 85 531 b 67 500 74 517 67 510 b 186 428 67 449 147 428 b 300 458 244 428 300 453 b 297 464 300 463 301 454 b 296 467 296 464 296 465 l 296 468 l 294 468 b 228 457 289 467 260 457 b 122 504 161 457 133 493 b 96 540 117 511 101 531 z "},"ó":{"ha":299,"x_min":0,"x_max":0,"o":"m 283 272 b 203 361 283 299 261 361 b 142 339 174 361 157 350 b 118 364 126 363 122 364 b -17 126 96 357 -17 269 b 90 -3 -17 72 14 -3 b 183 44 136 -3 174 32 b 218 38 196 40 207 38 b 313 100 290 38 313 85 b 308 107 313 104 311 107 b 236 75 297 107 269 75 b 219 78 229 75 224 76 b 285 246 249 115 285 179 b 283 272 285 256 285 263 z m 94 32 b 36 107 57 36 36 57 b 92 233 36 157 60 200 b 89 199 90 222 89 210 b 149 61 89 149 100 90 b 94 32 122 38 104 32 z m 213 175 b 179 96 206 142 194 117 b 151 164 157 103 151 143 b 207 272 151 207 179 272 b 218 213 218 268 218 240 b 213 175 218 200 217 186 z m 271 540 b 244 504 265 531 250 511 b 139 457 233 493 206 457 b 72 468 107 457 78 467 l 71 467 b 69 464 71 465 69 465 l 67 458 b 181 428 67 453 122 428 b 301 492 218 428 301 444 b 271 540 301 508 275 540 z "},"ô":{"ha":299,"x_min":0,"x_max":0,"o":"m 283 272 b 203 361 283 299 261 361 b 142 339 174 361 157 350 b 118 364 126 363 122 364 b -17 126 96 357 -17 269 b 90 -3 -17 72 14 -3 b 183 44 136 -3 174 32 b 218 38 196 40 207 38 b 313 100 290 38 313 85 b 308 107 313 104 311 107 b 236 75 297 107 269 75 b 219 78 229 75 224 76 b 285 246 249 115 285 179 b 283 272 285 256 285 263 z m 94 32 b 36 107 57 36 36 57 b 92 233 36 157 60 200 b 89 199 90 222 89 210 b 149 61 89 149 100 90 b 94 32 122 38 104 32 z m 213 175 b 179 96 206 142 194 117 b 151 164 157 103 151 143 b 207 272 151 207 179 272 b 218 213 218 268 218 240 b 213 175 218 200 217 186 z m 336 425 b 265 442 329 426 297 426 b 197 517 210 464 239 517 b 101 472 181 517 165 472 b 39 483 69 472 43 482 l 33 475 b 124 443 33 469 76 443 b 189 463 146 443 168 447 b 299 408 217 419 265 408 b 340 417 333 408 340 413 b 336 424 340 418 336 419 z "},"õ":{"ha":299,"x_min":0,"x_max":0,"o":"m 283 272 b 203 361 283 299 261 361 b 142 339 174 361 157 350 b 118 364 126 363 122 364 b -17 126 96 357 -17 269 b 90 -3 -17 72 14 -3 b 183 44 136 -3 174 32 b 218 38 196 40 207 38 b 313 100 290 38 313 85 b 308 107 313 104 311 107 b 236 75 297 107 269 75 b 219 78 229 75 224 76 b 285 246 249 115 285 179 b 283 272 285 256 285 263 z m 94 32 b 36 107 57 36 36 57 b 92 233 36 157 60 200 b 89 199 90 222 89 210 b 149 61 89 149 100 90 b 94 32 122 38 104 32 z m 213 175 b 179 96 206 142 194 117 b 151 164 157 103 151 143 b 207 272 151 207 179 272 b 218 213 218 268 218 240 b 213 175 218 200 217 186 z m 143 475 b 242 447 169 465 207 447 b 314 504 296 447 314 483 b 268 535 314 532 279 535 b 218 492 264 492 242 492 b 92 508 189 492 136 508 b 51 467 71 508 51 493 b 54 454 51 463 53 458 l 58 450 b 65 454 65 450 64 454 b 64 465 65 456 64 460 b 90 489 64 471 67 489 b 143 475 108 489 122 481 z "},"ö":{"ha":299,"x_min":0,"x_max":0,"o":"m 283 272 b 203 361 283 299 261 361 b 142 339 174 361 157 350 b 118 364 126 363 122 364 b -17 126 96 357 -17 269 b 90 -3 -17 72 14 -3 b 183 44 136 -3 174 32 b 218 38 196 40 207 38 b 313 100 290 38 313 85 b 308 107 313 104 311 107 b 236 75 297 107 269 75 b 219 78 229 75 224 76 b 285 246 249 115 285 179 b 283 272 285 256 285 263 z m 94 32 b 36 107 57 36 36 57 b 92 233 36 157 60 200 b 89 199 90 222 89 210 b 149 61 89 149 100 90 b 94 32 122 38 104 32 z m 213 175 b 179 96 206 142 194 117 b 151 164 157 103 151 143 b 207 272 151 207 179 272 b 218 213 218 268 218 240 b 213 175 218 200 217 186 z m 211 513 b 214 500 213 508 214 504 b 203 440 214 456 203 451 b 235 413 203 414 224 413 l 243 413 b 242 425 242 415 242 419 b 263 490 242 471 263 481 b 211 513 263 514 214 510 z m 114 513 b 117 499 115 508 117 504 b 106 439 117 447 106 454 b 138 413 106 415 126 413 l 146 413 b 144 424 144 414 144 418 b 154 461 144 436 147 449 b 164 479 157 468 160 474 b 165 489 165 481 165 485 b 114 513 165 517 118 508 z "},"ù":{"ha":343,"x_min":0,"x_max":0,"o":"m 364 161 b 356 160 360 161 356 161 b 250 6 322 56 276 6 b 231 51 238 6 231 21 b 321 290 231 138 321 247 b 253 361 321 324 258 361 b 236 318 249 350 243 333 b 224 290 232 308 228 300 b 169 136 211 264 182 201 b 72 35 138 63 99 35 b 46 74 50 35 46 51 b 154 346 46 167 154 304 b 90 417 154 379 94 417 b 71 374 86 406 81 389 b 56 346 67 364 61 356 l 57 346 b -18 100 39 307 -18 190 b 54 -3 -18 33 19 -3 b 164 79 104 -3 142 42 b 240 -29 164 14 203 -29 b 371 156 322 -29 371 142 b 364 161 371 157 368 158 z m 138 540 b 122 526 131 536 126 531 b 108 500 115 517 108 510 b 228 428 108 449 189 428 b 342 458 286 428 342 453 b 339 464 342 463 343 454 b 338 467 338 464 338 465 l 338 468 l 336 468 b 269 457 331 467 301 457 b 164 504 203 457 175 493 b 138 540 158 511 143 531 z "},"ú":{"ha":343,"x_min":0,"x_max":0,"o":"m 364 161 b 356 160 360 161 356 161 b 250 6 322 56 276 6 b 231 51 238 6 231 21 b 321 290 231 138 321 247 b 253 361 321 324 258 361 b 236 318 249 350 243 333 b 224 290 232 308 228 300 b 169 136 211 264 182 201 b 72 35 138 63 99 35 b 46 74 50 35 46 51 b 154 346 46 167 154 304 b 90 417 154 379 94 417 b 71 374 86 406 81 389 b 56 346 67 364 61 356 l 57 346 b -18 100 39 307 -18 190 b 54 -3 -18 33 19 -3 b 164 79 104 -3 142 42 b 240 -29 164 14 203 -29 b 371 156 322 -29 371 142 b 364 161 371 157 368 158 z m 317 540 b 290 504 311 531 296 511 b 185 457 279 493 251 457 b 118 468 153 457 124 467 l 117 467 b 115 464 117 465 115 465 l 113 458 b 226 428 113 453 168 428 b 347 492 264 428 347 444 b 317 540 347 508 321 540 z "},"û":{"ha":343,"x_min":0,"x_max":0,"o":"m 364 161 b 356 160 360 161 356 161 b 250 6 322 56 276 6 b 231 51 238 6 231 21 b 321 290 231 138 321 247 b 253 361 321 324 258 361 b 236 318 249 350 243 333 b 224 290 232 308 228 300 b 169 136 211 264 182 201 b 72 35 138 63 99 35 b 46 74 50 35 46 51 b 154 346 46 167 154 304 b 90 417 154 379 94 417 b 71 374 86 406 81 389 b 56 346 67 364 61 356 l 57 346 b -18 100 39 307 -18 190 b 54 -3 -18 33 19 -3 b 164 79 104 -3 142 42 b 240 -29 164 14 203 -29 b 371 156 322 -29 371 142 b 364 161 371 157 368 158 z m 375 408 b 304 425 368 410 336 410 b 236 500 249 447 278 500 b 140 456 219 500 204 456 b 78 467 108 456 82 465 l 72 458 b 163 426 72 453 115 426 b 228 446 185 426 207 431 b 338 392 256 403 304 392 b 379 400 372 392 379 396 b 375 407 379 401 375 403 z "},"ü":{"ha":343,"x_min":0,"x_max":0,"o":"m 364 161 b 356 160 360 161 356 161 b 250 6 322 56 276 6 b 231 51 238 6 231 21 b 321 290 231 138 321 247 b 253 361 321 324 258 361 b 236 318 249 350 243 333 b 224 290 232 308 228 300 b 169 136 211 264 182 201 b 72 35 138 63 99 35 b 46 74 50 35 46 51 b 154 346 46 167 154 304 b 90 417 154 379 94 417 b 71 374 86 406 81 389 b 56 346 67 364 61 356 l 57 346 b -18 100 39 307 -18 190 b 54 -3 -18 33 19 -3 b 164 79 104 -3 142 42 b 240 -29 164 14 203 -29 b 371 156 322 -29 371 142 b 364 161 371 157 368 158 z m 251 513 b 254 500 253 508 254 504 b 243 440 254 456 243 451 b 275 413 243 414 264 413 l 283 413 b 282 425 282 415 282 419 b 303 490 282 471 303 481 b 251 513 303 514 254 510 z m 154 513 b 157 499 156 508 157 504 b 146 439 157 447 146 454 b 178 413 146 415 167 413 l 186 413 b 185 424 185 414 185 418 b 194 461 185 436 188 449 b 204 479 197 468 200 474 b 206 489 206 481 206 485 b 154 513 206 517 158 508 z "},"ý":{"ha":382,"x_min":0,"x_max":0,"o":"m 396 160 b 390 161 394 161 392 161 b 388 160 389 160 388 160 b 265 39 350 75 297 39 b 242 74 244 39 242 51 b 301 239 242 136 268 179 b 311 272 308 251 311 263 b 249 346 311 310 275 333 b 193 194 244 322 226 306 b 75 33 156 76 107 33 b 49 75 53 33 49 51 b 153 344 49 165 153 304 b 88 413 153 376 93 413 l 57 340 b -17 99 35 300 -17 183 b 56 -3 -17 32 22 -3 b 132 35 85 -3 111 14 b 85 -11 121 7 122 -11 b 46 -10 72 -11 61 -10 b -64 -93 24 -10 -64 -21 b 22 -165 -64 -164 8 -165 b 147 -79 67 -165 110 -144 b 303 -117 203 -96 264 -117 b 371 -40 347 -117 371 -78 b 350 -42 367 -42 360 -42 b 181 -17 301 -42 247 -32 b 200 24 186 -4 194 8 b 257 -3 217 3 236 -3 b 401 156 375 -3 399 156 l 401 154 b 396 160 401 156 400 157 z m 88 -74 b 10 -135 61 -119 33 -135 b -36 -100 -12 -135 -36 -124 b 28 -54 -36 -67 -4 -54 b 90 -65 49 -56 69 -61 l 125 -74 l 118 -74 b 103 -72 114 -74 108 -72 b 88 -74 96 -72 90 -72 z m 319 540 b 293 504 314 531 299 511 b 188 457 282 493 254 457 b 121 468 156 457 126 467 l 119 467 b 118 464 119 465 118 465 l 115 458 b 229 428 115 453 171 428 b 350 492 267 428 350 444 b 319 540 350 508 324 540 z "},"ÿ":{"ha":382,"x_min":0,"x_max":0,"o":"m 396 160 b 390 161 394 161 392 161 b 388 160 389 160 388 160 b 265 39 350 75 297 39 b 242 74 244 39 242 51 b 301 239 242 136 268 179 b 311 272 308 251 311 263 b 249 346 311 310 275 333 b 193 194 244 322 226 306 b 75 33 156 76 107 33 b 49 75 53 33 49 51 b 153 344 49 165 153 304 b 88 413 153 376 93 413 l 57 340 b -17 99 35 300 -17 183 b 56 -3 -17 32 22 -3 b 132 35 85 -3 111 14 b 85 -11 121 7 122 -11 b 46 -10 72 -11 61 -10 b -64 -93 24 -10 -64 -21 b 22 -165 -64 -164 8 -165 b 147 -79 67 -165 110 -144 b 303 -117 203 -96 264 -117 b 371 -40 347 -117 371 -78 b 350 -42 367 -42 360 -42 b 181 -17 301 -42 247 -32 b 200 24 186 -4 194 8 b 257 -3 217 3 236 -3 b 401 156 375 -3 399 156 l 401 154 b 396 160 401 156 400 157 z m 88 -74 b 10 -135 61 -119 33 -135 b -36 -100 -12 -135 -36 -124 b 28 -54 -36 -67 -4 -54 b 90 -65 49 -56 69 -61 l 125 -74 l 118 -74 b 103 -72 114 -74 108 -72 b 88 -74 96 -72 90 -72 z m 258 513 b 261 500 260 508 261 504 b 250 440 261 456 250 451 b 282 413 250 414 271 413 l 290 413 b 289 425 289 415 289 419 b 310 490 289 471 310 481 b 258 513 310 514 261 510 z m 161 513 b 164 499 163 508 164 504 b 153 439 164 447 153 454 b 185 413 153 415 174 413 l 193 413 b 192 424 192 414 192 418 b 201 461 192 436 194 449 b 211 479 204 468 207 474 b 213 489 213 481 213 485 b 161 513 213 517 165 508 z "},"ø":{"ha":299,"x_min":0,"x_max":0,"o":"m 283 272 b 203 361 283 299 261 361 b 142 339 174 361 157 350 b 118 364 126 363 122 364 b -17 126 96 357 -17 269 b 90 -3 -17 72 14 -3 b 183 44 136 -3 174 32 b 218 38 196 40 207 38 b 313 100 290 38 313 85 b 308 107 313 104 311 107 b 236 75 297 107 269 75 b 219 78 229 75 224 76 b 285 246 249 115 285 179 b 283 272 285 256 285 263 z m 94 32 b 36 107 57 36 36 57 b 92 233 36 157 60 200 b 89 199 90 222 89 210 b 149 61 89 149 100 90 b 94 32 122 38 104 32 z m 213 175 b 179 96 206 142 194 117 b 151 164 157 103 151 143 b 207 272 151 207 179 272 b 218 213 218 268 218 240 b 213 175 218 200 217 186 z m 196 350 b 51 -19 144 185 49 -17 b 49 -18 50 -19 50 -19 b 44 -17 47 -18 46 -18 b 43 -14 43 -15 43 -15 b 140 365 54 13 135 336 b 143 404 142 376 143 394 b 196 350 167 393 211 394 z "},"×":{"ha":453,"x_min":0,"x_max":0,"o":"m 283 194 b 243 269 257 204 247 243 b 332 372 276 303 332 339 b 319 396 332 382 325 389 b 307 407 315 400 311 403 b 235 317 286 372 257 344 b 213 390 233 357 242 390 b 178 374 181 390 179 375 b 200 271 183 335 188 303 b 126 165 146 204 126 172 b 132 161 126 163 128 161 b 211 238 131 163 146 169 b 278 164 218 217 261 167 b 296 189 290 156 304 186 z "},",":{"ha":294,"x_min":0,"x_max":0,"o":"m 150 50 b 124 58 146 54 133 57 b 104 60 117 60 111 60 b 106 43 104 54 106 49 b 63 -65 106 10 94 -33 b 76 -76 65 -72 69 -76 b 153 40 124 -76 153 29 b 151 47 153 44 151 46 b 150 50 150 49 150 49 z "},"=":{"ha":381,"x_min":0,"x_max":0,"o":"m 90 296 b 44 272 50 296 44 282 b 46 256 44 264 44 258 l 49 247 b 131 256 60 253 93 256 b 222 253 163 256 196 254 b 267 250 238 251 253 251 b 296 271 293 250 296 260 b 294 296 296 281 294 289 l 294 308 b 188 297 289 301 238 299 b 90 296 158 296 125 296 z m 90 208 b 44 185 50 208 44 194 b 46 168 44 176 44 171 l 49 160 b 131 168 60 165 93 168 b 222 165 163 168 196 167 b 267 163 238 164 253 164 b 296 183 293 163 296 172 b 294 208 296 193 294 201 l 294 221 b 188 210 289 214 238 211 b 90 208 158 208 125 208 z "},"¿":{"ha":493,"x_min":0,"x_max":0,"o":"m 378 488 b 375 497 376 492 375 494 b 389 554 375 538 389 542 b 358 576 389 575 371 576 l 350 576 b 351 568 351 575 351 572 b 328 507 351 528 328 517 b 378 488 328 489 372 488 z m 288 -96 b 432 124 390 -62 432 33 b 404 238 432 151 419 238 l 404 239 b 364 274 386 268 374 274 b 285 244 333 275 285 244 b 344 108 317 218 344 179 b 211 -36 344 54 315 -36 b 104 71 160 -36 104 -3 b 244 282 104 147 178 226 b 357 472 329 356 357 454 b 349 481 357 476 356 481 b 278 357 326 481 363 457 b 51 63 225 293 51 213 b 225 -106 51 -33 128 -106 b 288 -96 249 -106 269 -103 z "},"M":{"ha":989,"x_min":0,"x_max":0,"o":"m 993 592 b 835 267 993 574 968 475 b 686 13 757 156 710 83 b 642 250 675 56 642 153 b 674 439 642 318 650 388 b 686 476 685 461 679 451 b 610 556 697 526 614 551 b 506 214 594 433 540 325 b 231 -35 468 99 399 -35 b 56 174 101 -35 56 67 b 124 358 56 244 68 299 b 289 443 167 410 235 443 b 361 414 332 443 349 424 b 376 411 365 413 371 411 b 438 451 407 411 438 450 b 297 511 404 485 371 511 b 19 163 161 504 19 358 b 249 -85 19 -4 110 -85 b 583 229 443 -85 528 82 b 585 222 583 226 583 224 b 688 -32 614 93 675 -32 b 694 -18 694 -32 694 -22 b 861 210 707 19 757 110 b 807 -8 826 104 807 25 b 864 -65 807 -57 860 -65 b 1064 490 864 24 1019 406 b 1071 521 1068 500 1071 511 b 993 592 1071 567 1000 588 z "},"ﬁ":{"ha":372,"x_min":0,"x_max":0,"o":"m 22 -212 b 182 1 64 -208 182 -142 b 108 228 182 101 135 174 b 157 344 125 271 140 307 b 279 346 204 344 276 343 b 165 363 283 350 249 351 b 225 513 188 418 225 479 b 147 579 225 553 154 575 b 136 533 147 568 142 550 l 126 504 b 75 372 111 467 99 433 b 0 382 49 376 22 378 b -8 375 -4 382 -8 379 b 44 286 -8 369 10 346 b -61 -122 11 186 -61 0 b 8 -214 -61 -156 -58 -214 b 22 -212 14 -214 18 -214 z m 38 336 b 35 340 36 338 35 339 b 64 343 35 344 49 343 b 54 314 60 333 58 324 b 38 336 49 324 43 329 z m 10 -92 b 94 192 25 3 60 103 b 140 21 117 143 140 83 b 25 -158 140 -35 103 -158 b 7 -128 10 -158 7 -144 b 10 -92 7 -115 8 -103 z m 256 -3 b 401 154 372 -3 401 158 l 399 157 b 389 161 396 160 393 161 b 386 160 388 160 386 160 b 265 39 349 75 297 39 b 242 74 244 39 242 53 b 314 263 242 133 282 203 b 251 346 356 333 261 356 b 178 99 244 308 178 211 b 256 -3 178 47 201 -3 z m 382 415 b 386 433 385 421 386 426 b 342 476 386 457 368 476 b 296 426 315 476 296 456 b 332 381 296 403 306 381 b 382 415 353 381 372 394 z "},"ﬂ":{"ha":325,"x_min":0,"x_max":0,"o":"m 22 -212 b 182 1 64 -208 182 -142 b 108 228 182 101 135 174 b 157 344 125 271 140 307 b 344 349 207 344 344 339 b 165 363 344 356 232 356 b 225 513 188 418 225 479 b 147 579 225 553 154 575 b 136 533 147 568 142 550 l 126 504 b 75 372 111 467 99 433 b 0 382 49 376 22 378 b -8 375 -4 382 -8 379 b 44 286 -8 369 10 346 b -61 -122 11 186 -61 0 b 8 -214 -61 -156 -58 -214 b 22 -212 14 -214 18 -214 z m 38 336 b 64 343 28 343 54 343 b 54 314 60 333 58 324 b 38 336 49 324 43 329 z m 10 -92 b 94 192 25 3 60 103 b 140 21 117 143 140 83 b 25 -158 140 -35 103 -158 b 7 -128 10 -158 7 -144 b 10 -92 7 -115 8 -103 z m 335 651 b 324 606 335 640 329 622 b 314 575 319 596 317 585 b 139 -3 254 433 139 114 b 186 -60 139 -60 172 -60 b 329 124 226 -60 329 89 b 326 131 329 128 328 129 b 311 119 324 131 318 126 b 203 -3 251 24 213 -3 b 199 8 199 -3 199 4 b 399 533 199 103 358 447 b 414 583 406 549 414 567 b 335 651 414 621 342 651 z "},"˚":{"ha":350,"x_min":0,"x_max":0,"o":"m 214 426 b 222 435 218 428 221 431 b 233 465 229 450 233 460 b 232 471 233 468 233 469 b 143 486 217 493 158 513 b 138 460 138 474 138 464 b 214 426 161 428 190 425 z m 199 446 b 164 461 188 446 174 446 b 167 474 164 465 165 469 b 206 467 172 485 199 476 l 206 464 b 201 450 206 461 204 457 b 199 446 201 449 199 447 z "},"å":{"ha":367,"x_min":0,"x_max":0,"o":"m 381 161 b 372 160 376 161 372 161 b 267 6 339 56 293 6 b 247 51 254 6 247 21 b 322 249 247 118 292 193 l 324 249 b 338 292 331 264 338 276 b 269 361 338 324 275 361 b 264 344 268 357 268 350 b 183 372 243 357 224 372 b -19 135 67 372 -19 240 b 83 -3 -19 92 -1 -3 b 183 49 144 -3 168 31 b 257 -29 196 -8 229 -29 b 388 156 339 -29 388 142 b 381 161 388 157 385 158 z m 181 75 b 99 29 158 47 131 29 b 29 119 38 29 29 81 b 169 290 29 201 108 290 b 226 258 192 290 210 276 b 181 75 206 210 181 138 z m 297 426 b 306 435 301 428 304 431 b 317 465 313 450 317 460 b 315 471 317 468 317 469 b 226 486 300 493 242 513 b 221 460 221 474 221 464 b 297 426 244 428 274 425 z m 282 446 b 247 461 271 446 257 446 b 250 474 247 465 249 469 b 289 467 256 485 282 476 l 289 464 b 285 450 289 461 288 457 b 282 446 285 449 282 447 z "},"ç":{"ha":299,"x_min":0,"x_max":0,"o":"m 321 165 b 251 90 299 165 321 144 b 125 29 226 68 175 29 b 38 128 75 29 38 71 b 158 301 38 213 119 301 b 175 279 169 301 175 294 b 171 251 175 271 174 261 b 136 182 167 233 157 208 b 158 174 143 179 151 176 b 201 165 171 169 186 165 b 264 274 247 165 264 233 b 172 388 264 286 254 388 b 147 383 164 388 156 386 b -18 129 32 344 -18 244 b 106 -11 -18 67 22 -11 b 325 160 188 -11 307 78 b 321 165 325 163 324 164 z m 21 58 b 17 60 19 58 18 58 b 14 61 15 60 15 61 b 13 63 13 61 13 61 b 4 38 13 61 4 53 b 32 -12 4 22 32 -1 b 15 -29 32 -24 26 -29 b -1 -26 11 -29 6 -28 l 0 -26 b -15 -21 -7 -26 -11 -25 b -33 17 -25 -15 -29 -6 b -79 -14 -40 13 -79 15 b 0 -71 -79 -18 -74 -71 b 64 -15 26 -71 57 -61 b 56 8 64 -6 65 -1 b 21 58 17 38 21 39 z "},"œ":{"ha":508,"x_min":0,"x_max":0,"o":"m 283 272 b 203 361 283 299 261 361 b 142 339 174 361 157 350 b 118 364 126 363 122 364 b -17 126 96 357 -17 269 b 90 -3 -17 72 14 -3 b 183 44 136 -3 174 32 b 285 246 254 101 258 124 b 283 272 285 256 285 265 z m 94 32 b 36 107 57 36 36 57 b 92 233 36 157 60 200 b 89 199 90 222 89 210 b 149 61 89 149 100 90 b 94 32 122 38 104 32 z m 213 175 b 179 96 206 142 194 117 b 151 164 157 103 151 143 b 207 272 151 207 179 272 b 218 213 218 268 218 240 b 213 175 218 200 217 186 z m 531 125 b 525 126 529 126 526 126 b 463 67 518 126 518 108 b 351 21 439 50 392 21 b 263 122 297 21 263 71 b 271 172 263 139 265 156 b 331 156 281 163 301 156 b 489 301 417 156 489 224 b 396 381 489 340 456 381 b 210 135 300 381 210 260 b 339 -15 210 78 242 -15 b 485 51 404 -15 453 18 b 533 119 503 71 519 93 b 531 125 533 121 532 124 z m 311 254 b 382 300 338 288 364 300 b 401 282 394 300 401 294 b 294 192 401 251 350 192 b 276 193 285 192 279 192 b 311 254 286 215 299 236 z "},"(":{"ha":224,"x_min":0,"x_max":0,"o":"m 214 536 b 236 625 240 596 251 618 b 165 561 214 640 197 613 b 163 -53 60 400 8 51 b 176 -32 213 -87 225 -65 b 214 536 72 35 125 347 z "},")":{"ha":136,"x_min":0,"x_max":0,"o":"m -19 536 b 18 -32 69 347 122 35 b 32 -53 -31 -65 -18 -87 b 29 561 186 51 135 400 b -42 625 -3 613 -19 640 b -19 536 -57 618 -46 596 z "},"*":{"ha":183,"x_min":0,"x_max":0,"o":"m 178 514 b 193 553 190 547 193 547 b 169 578 193 579 171 574 b 150 514 169 567 161 542 b 83 504 72 510 94 511 b 81 493 82 503 81 499 l 81 485 b 82 482 81 483 81 482 b 138 488 89 486 111 488 b 118 443 121 446 118 444 l 118 442 b 149 418 118 424 143 419 b 168 486 149 424 157 454 b 207 485 185 486 197 485 b 221 483 211 483 217 483 b 238 497 236 483 238 490 l 238 521 b 178 514 233 517 207 515 z m 133 497 b 82 529 110 514 89 531 b 88 535 83 531 86 532 b 97 547 92 539 93 543 b 119 549 101 553 107 558 b 128 539 121 546 124 543 b 158 511 132 532 143 524 b 215 553 186 532 211 549 b 224 517 219 549 239 532 b 181 493 224 513 235 522 b 228 463 201 476 221 464 b 226 458 228 461 228 460 b 222 453 225 457 224 454 b 213 446 218 449 214 446 b 154 481 201 446 217 436 b 99 442 128 465 108 451 b 97 476 101 444 78 457 b 133 497 101 481 101 481 z "},"À":{"ha":822,"x_min":0,"x_max":0,"o":"m 128 -8 b 217 -40 156 -29 185 -40 b 435 115 310 -40 394 44 b 547 300 469 176 510 239 b 638 290 581 296 615 290 b 603 93 619 231 603 167 b 707 -3 603 39 664 -3 b 724 0 711 -3 717 -1 b 854 76 825 19 850 76 l 854 75 b 844 83 854 79 849 83 b 769 42 840 83 832 68 b 717 31 754 38 738 31 b 647 101 668 31 647 64 b 704 285 647 153 678 228 b 850 263 751 281 813 289 b 851 285 850 269 850 278 b 854 329 853 297 854 314 b 746 372 854 351 842 372 b 844 550 779 439 844 518 b 808 604 844 599 831 604 b 517 382 753 604 613 536 b 204 365 383 382 265 372 b 22 189 117 354 22 299 b 128 -8 22 115 63 36 z m 715 490 b 668 378 700 458 683 421 b 604 381 647 379 626 379 b 715 490 640 428 678 464 z m 167 322 b 249 326 194 325 222 326 b 474 308 326 326 400 318 b 217 15 407 193 332 15 b 65 190 146 15 65 99 b 167 322 65 251 101 313 z m 731 757 b 715 743 724 753 719 747 b 701 717 708 733 701 726 b 821 644 701 665 782 644 b 935 675 879 644 935 669 b 932 681 935 679 936 671 b 931 683 931 681 931 682 l 931 685 l 929 685 b 863 674 924 683 894 674 b 757 721 796 674 768 710 b 731 757 751 728 736 747 z "},"Á":{"ha":822,"x_min":0,"x_max":0,"o":"m 128 -8 b 217 -40 156 -29 185 -40 b 435 115 310 -40 394 44 b 547 300 469 176 510 239 b 638 290 581 296 615 290 b 603 93 619 231 603 167 b 707 -3 603 39 664 -3 b 724 0 711 -3 717 -1 b 854 76 825 19 850 76 l 854 75 b 844 83 854 79 849 83 b 769 42 840 83 832 68 b 717 31 754 38 738 31 b 647 101 668 31 647 64 b 704 285 647 153 678 228 b 850 263 751 281 813 289 b 851 285 850 269 850 278 b 854 329 853 297 854 314 b 746 372 854 351 842 372 b 844 550 779 439 844 518 b 808 604 844 599 831 604 b 517 382 753 604 613 536 b 204 365 383 382 265 372 b 22 189 117 354 22 299 b 128 -8 22 115 63 36 z m 715 490 b 668 378 700 458 683 421 b 604 381 647 379 626 379 b 715 490 640 428 678 464 z m 167 322 b 249 326 194 325 222 326 b 474 308 326 326 400 318 b 217 15 407 193 332 15 b 65 190 146 15 65 99 b 167 322 65 251 101 313 z m 881 757 b 854 721 875 747 860 728 b 749 674 843 710 815 674 b 682 685 717 674 688 683 l 681 683 b 679 681 681 682 679 682 l 676 675 b 790 644 676 669 732 644 b 911 708 828 644 911 661 b 881 757 911 725 885 757 z "},"Â":{"ha":822,"x_min":0,"x_max":0,"o":"m 128 -8 b 217 -40 156 -29 185 -40 b 435 115 310 -40 394 44 b 547 300 469 176 510 239 b 638 290 581 296 615 290 b 603 93 619 231 603 167 b 707 -3 603 39 664 -3 b 724 0 711 -3 717 -1 b 854 76 825 19 850 76 l 854 75 b 844 83 854 79 849 83 b 769 42 840 83 832 68 b 717 31 754 38 738 31 b 647 101 668 31 647 64 b 704 285 647 153 678 228 b 850 263 751 281 813 289 b 851 285 850 269 850 278 b 854 329 853 297 854 314 b 746 372 854 351 842 372 b 844 550 779 439 844 518 b 808 604 844 599 831 604 b 517 382 753 604 613 536 b 204 365 383 382 265 372 b 22 189 117 354 22 299 b 128 -8 22 115 63 36 z m 715 490 b 668 378 700 458 683 421 b 604 381 647 379 626 379 b 715 490 640 428 678 464 z m 167 322 b 249 326 194 325 222 326 b 474 308 326 326 400 318 b 217 15 407 193 332 15 b 65 190 146 15 65 99 b 167 322 65 251 101 313 z m 958 642 b 888 658 951 643 919 643 b 819 733 832 681 861 733 b 724 689 803 733 788 689 b 661 700 692 689 665 699 l 656 692 b 746 660 656 686 699 660 b 811 679 768 660 790 664 b 921 625 839 636 888 625 b 963 633 956 625 963 629 b 958 640 963 635 958 636 z "},"Ã":{"ha":822,"x_min":0,"x_max":0,"o":"m 128 -8 b 217 -40 156 -29 185 -40 b 435 115 310 -40 394 44 b 547 300 469 176 510 239 b 638 290 581 296 615 290 b 603 93 619 231 603 167 b 707 -3 603 39 664 -3 b 724 0 711 -3 717 -1 b 854 76 825 19 850 76 l 854 75 b 844 83 854 79 849 83 b 769 42 840 83 832 68 b 717 31 754 38 738 31 b 647 101 668 31 647 64 b 704 285 647 153 678 228 b 850 263 751 281 813 289 b 851 285 850 269 850 278 b 854 329 853 297 854 314 b 746 372 854 351 842 372 b 844 550 779 439 844 518 b 808 604 844 599 831 604 b 517 382 753 604 613 536 b 204 365 383 382 265 372 b 22 189 117 354 22 299 b 128 -8 22 115 63 36 z m 715 490 b 668 378 700 458 683 421 b 604 381 647 379 626 379 b 715 490 640 428 678 464 z m 167 322 b 249 326 194 325 222 326 b 474 308 326 326 400 318 b 217 15 407 193 332 15 b 65 190 146 15 65 99 b 167 322 65 251 101 313 z m 765 692 b 864 664 792 682 829 664 b 936 721 918 664 936 700 b 890 751 936 749 901 751 b 840 708 886 708 864 708 b 714 725 811 708 758 725 b 674 683 693 725 674 710 b 676 671 674 679 675 675 l 681 667 b 688 671 688 667 686 671 b 686 682 688 672 686 676 b 713 706 686 688 689 706 b 765 692 731 706 744 697 z "},"Ä":{"ha":822,"x_min":0,"x_max":0,"o":"m 128 -8 b 217 -40 156 -29 185 -40 b 435 115 310 -40 394 44 b 547 300 469 176 510 239 b 638 290 581 296 615 290 b 603 93 619 231 603 167 b 707 -3 603 39 664 -3 b 724 0 711 -3 717 -1 b 854 76 825 19 850 76 l 854 75 b 844 83 854 79 849 83 b 769 42 840 83 832 68 b 717 31 754 38 738 31 b 647 101 668 31 647 64 b 704 285 647 153 678 228 b 850 263 751 281 813 289 b 851 285 850 269 850 278 b 854 329 853 297 854 314 b 746 372 854 351 842 372 b 844 550 779 439 844 518 b 808 604 844 599 831 604 b 517 382 753 604 613 536 b 204 365 383 382 265 372 b 22 189 117 354 22 299 b 128 -8 22 115 63 36 z m 715 490 b 668 378 700 458 683 421 b 604 381 647 379 626 379 b 715 490 640 428 678 464 z m 167 322 b 249 326 194 325 222 326 b 474 308 326 326 400 318 b 217 15 407 193 332 15 b 65 190 146 15 65 99 b 167 322 65 251 101 313 z m 840 729 b 843 717 842 725 843 721 b 832 657 843 672 832 668 b 864 629 832 631 853 629 l 872 629 b 871 642 871 632 871 636 b 892 707 871 688 892 697 b 840 729 892 731 843 726 z m 743 729 b 746 715 744 725 746 721 b 735 656 746 664 735 671 b 767 629 735 632 756 629 l 775 629 b 774 640 774 631 774 635 b 783 678 774 653 776 665 b 793 696 786 685 789 690 b 794 706 794 697 794 701 b 743 729 794 733 747 725 z "},"Å":{"ha":822,"x_min":0,"x_max":0,"o":"m 128 -8 b 217 -40 156 -29 185 -40 b 435 115 310 -40 394 44 b 547 300 469 176 510 239 b 638 290 581 296 615 290 b 603 93 619 231 603 167 b 707 -3 603 39 664 -3 b 724 0 711 -3 717 -1 b 854 76 825 19 850 76 l 854 75 b 844 83 854 79 849 83 b 769 42 840 83 832 68 b 717 31 754 38 738 31 b 647 101 668 31 647 64 b 704 285 647 153 678 228 b 850 263 751 281 813 289 b 851 285 850 269 850 278 b 854 329 853 297 854 314 b 746 372 854 351 842 372 b 844 550 779 439 844 518 b 808 604 844 599 831 604 b 517 382 753 604 613 536 b 204 365 383 382 265 372 b 22 189 117 354 22 299 b 128 -8 22 115 63 36 z m 715 490 b 668 378 700 458 683 421 b 604 381 647 379 626 379 b 715 490 640 428 678 464 z m 167 322 b 249 326 194 325 222 326 b 474 308 326 326 400 318 b 217 15 407 193 332 15 b 65 190 146 15 65 99 b 167 322 65 251 101 313 z m 865 643 b 874 651 869 644 872 647 b 885 682 881 667 885 676 b 883 688 885 685 885 686 b 794 703 868 710 810 729 b 789 676 789 690 789 681 b 865 643 813 644 842 642 z m 850 663 b 815 678 839 663 825 663 b 818 690 815 682 817 686 b 857 683 824 701 850 693 l 857 681 b 853 667 857 678 856 674 b 850 663 853 665 850 664 z "},"Ç":{"ha":497,"x_min":0,"x_max":0,"o":"m 182 -68 b 389 11 265 -68 344 -22 b 536 228 499 94 536 201 b 529 236 536 232 535 236 b 438 97 504 236 531 210 b 196 -22 386 35 289 -22 b 82 119 103 -22 82 40 b 432 508 82 315 285 508 b 468 504 444 508 457 507 b 425 390 435 447 425 406 b 438 354 426 376 431 364 b 513 314 449 336 469 318 l 515 315 b 594 515 526 326 513 385 b 596 524 596 517 596 519 b 433 599 592 561 539 599 b 17 125 211 599 13 344 b 182 -68 17 18 86 -68 z m 81 -3 b 76 -1 79 -3 78 -3 b 74 0 75 -1 75 0 b 72 1 72 0 72 0 b 64 -24 72 0 64 -8 b 92 -74 64 -39 92 -62 b 75 -90 92 -85 86 -90 b 58 -87 71 -90 65 -89 l 60 -87 b 44 -82 53 -87 49 -86 b 26 -44 35 -76 31 -67 b -19 -75 19 -49 -19 -46 b 60 -132 -19 -79 -14 -132 b 124 -76 86 -132 117 -122 b 115 -53 124 -67 125 -62 b 81 -3 76 -24 81 -22 z "},"È":{"ha":824,"x_min":0,"x_max":0,"o":"m 921 608 b 707 560 911 611 861 560 b 553 574 669 560 618 564 b 369 592 499 581 438 592 b 144 533 297 592 221 578 b 17 279 54 468 17 372 b 213 39 17 86 146 39 b 283 56 272 39 283 51 b 274 64 283 65 272 64 b 231 58 269 64 254 58 b 56 261 143 58 56 128 b 339 522 56 447 196 522 b 488 504 389 522 439 515 b 393 406 456 482 422 449 b 382 404 389 406 386 404 l 382 406 b 310 419 372 406 324 410 b 308 406 308 415 308 410 l 308 376 b 351 333 308 356 311 333 b 306 160 325 283 306 225 b 515 -72 306 39 386 -72 b 851 226 667 -72 851 107 b 843 233 851 231 849 233 b 836 231 840 233 838 232 b 835 228 835 229 835 229 b 504 -19 835 218 744 -8 b 375 143 415 -12 375 64 b 447 332 375 214 410 283 b 608 331 501 332 560 331 b 689 333 663 331 685 332 l 689 332 l 692 333 b 696 343 694 336 696 339 b 693 351 696 347 694 350 l 692 351 b 504 397 692 357 594 378 b 574 442 521 413 547 429 b 619 464 589 449 604 457 b 617 479 619 468 618 472 b 753 467 665 472 713 467 b 907 494 842 467 894 485 b 921 510 913 499 917 504 b 936 556 928 519 936 535 b 921 608 936 571 931 589 z m 585 757 b 569 743 578 753 574 747 b 556 717 563 733 556 726 b 675 644 556 665 636 644 b 789 675 733 644 789 669 b 786 681 789 679 790 671 b 785 683 785 681 785 682 l 785 685 l 783 685 b 717 674 778 683 749 674 b 611 721 650 674 622 710 b 585 757 606 728 590 747 z "},"É":{"ha":824,"x_min":0,"x_max":0,"o":"m 921 608 b 707 560 911 611 861 560 b 553 574 669 560 618 564 b 369 592 499 581 438 592 b 144 533 297 592 221 578 b 17 279 54 468 17 372 b 213 39 17 86 146 39 b 283 56 272 39 283 51 b 274 64 283 65 272 64 b 231 58 269 64 254 58 b 56 261 143 58 56 128 b 339 522 56 447 196 522 b 488 504 389 522 439 515 b 393 406 456 482 422 449 b 382 404 389 406 386 404 l 382 406 b 310 419 372 406 324 410 b 308 406 308 415 308 410 l 308 376 b 351 333 308 356 311 333 b 306 160 325 283 306 225 b 515 -72 306 39 386 -72 b 851 226 667 -72 851 107 b 843 233 851 231 849 233 b 836 231 840 233 838 232 b 835 228 835 229 835 229 b 504 -19 835 218 744 -8 b 375 143 415 -12 375 64 b 447 332 375 214 410 283 b 608 331 501 332 560 331 b 689 333 663 331 685 332 l 689 332 l 692 333 b 696 343 694 336 696 339 b 693 351 696 347 694 350 l 692 351 b 504 397 692 357 594 378 b 574 442 521 413 547 429 b 619 464 589 449 604 457 b 617 479 619 468 618 472 b 753 467 665 472 713 467 b 907 494 842 467 894 485 b 921 510 913 499 917 504 b 936 556 928 519 936 535 b 921 608 936 571 931 589 z m 761 757 b 735 721 756 747 740 728 b 629 674 724 710 696 674 b 563 685 597 674 568 683 l 561 683 b 560 681 561 682 560 682 l 557 675 b 671 644 557 669 613 644 b 792 708 708 644 792 661 b 761 757 792 725 765 757 z "},"Ê":{"ha":824,"x_min":0,"x_max":0,"o":"m 921 608 b 707 560 911 611 861 560 b 553 574 669 560 618 564 b 369 592 499 581 438 592 b 144 533 297 592 221 578 b 17 279 54 468 17 372 b 213 39 17 86 146 39 b 283 56 272 39 283 51 b 274 64 283 65 272 64 b 231 58 269 64 254 58 b 56 261 143 58 56 128 b 339 522 56 447 196 522 b 488 504 389 522 439 515 b 393 406 456 482 422 449 b 382 404 389 406 386 404 l 382 406 b 310 419 372 406 324 410 b 308 406 308 415 308 410 l 308 376 b 351 333 308 356 311 333 b 306 160 325 283 306 225 b 515 -72 306 39 386 -72 b 851 226 667 -72 851 107 b 843 233 851 231 849 233 b 836 231 840 233 838 232 b 835 228 835 229 835 229 b 504 -19 835 218 744 -8 b 375 143 415 -12 375 64 b 447 332 375 214 410 283 b 608 331 501 332 560 331 b 689 333 663 331 685 332 l 689 332 l 692 333 b 696 343 694 336 696 339 b 693 351 696 347 694 350 l 692 351 b 504 397 692 357 594 378 b 574 442 521 413 547 429 b 619 464 589 449 604 457 b 617 479 619 468 618 472 b 753 467 665 472 713 467 b 907 494 842 467 894 485 b 921 510 913 499 917 504 b 936 556 928 519 936 535 b 921 608 936 571 931 589 z m 821 625 b 750 642 814 626 782 626 b 682 717 694 664 724 717 b 586 672 665 717 650 672 b 524 683 554 672 528 682 l 518 675 b 608 643 518 669 561 643 b 674 663 631 643 653 647 b 783 608 701 619 750 608 b 825 617 818 608 825 613 b 821 624 825 618 821 619 z "},"Ë":{"ha":824,"x_min":0,"x_max":0,"o":"m 921 608 b 707 560 911 611 861 560 b 553 574 669 560 618 564 b 369 592 499 581 438 592 b 144 533 297 592 221 578 b 17 279 54 468 17 372 b 213 39 17 86 146 39 b 283 56 272 39 283 51 b 274 64 283 65 272 64 b 231 58 269 64 254 58 b 56 261 143 58 56 128 b 339 522 56 447 196 522 b 488 504 389 522 439 515 b 393 406 456 482 422 449 b 382 404 389 406 386 404 l 382 406 b 310 419 372 406 324 410 b 308 406 308 415 308 410 l 308 376 b 351 333 308 356 311 333 b 306 160 325 283 306 225 b 515 -72 306 39 386 -72 b 851 226 667 -72 851 107 b 843 233 851 231 849 233 b 836 231 840 233 838 232 b 835 228 835 229 835 229 b 504 -19 835 218 744 -8 b 375 143 415 -12 375 64 b 447 332 375 214 410 283 b 608 331 501 332 560 331 b 689 333 663 331 685 332 l 689 332 l 692 333 b 696 343 694 336 696 339 b 693 351 696 347 694 350 l 692 351 b 504 397 692 357 594 378 b 574 442 521 413 547 429 b 619 464 589 449 604 457 b 617 479 619 468 618 472 b 753 467 665 472 713 467 b 907 494 842 467 894 485 b 921 510 913 499 917 504 b 936 556 928 519 936 535 b 921 608 936 571 931 589 z m 699 729 b 701 717 700 725 701 721 b 690 657 701 672 690 668 b 722 629 690 631 711 629 l 731 629 b 729 642 729 632 729 636 b 750 707 729 688 750 697 b 699 729 750 731 701 726 z m 601 729 b 604 715 603 725 604 721 b 593 656 604 664 593 671 b 625 629 593 632 614 629 l 633 629 b 632 640 632 631 632 635 b 642 678 632 653 635 665 b 651 696 644 685 647 690 b 653 706 653 697 653 701 b 601 729 653 733 606 725 z "},"Ì":{"ha":583,"x_min":0,"x_max":0,"o":"m 817 596 b 365 565 800 533 468 565 b 19 319 214 565 19 499 b 169 176 19 194 131 176 b 239 196 218 181 239 190 b 231 206 239 206 229 206 b 181 199 226 206 210 199 b 57 311 103 199 57 239 b 321 499 57 444 201 499 b 551 465 403 499 474 475 b 418 81 529 369 460 238 b 408 26 413 57 408 39 b 413 -6 408 -8 410 1 b 208 -29 314 -6 208 -18 b 211 -40 208 -35 210 -39 b 214 -42 213 -42 213 -42 b 226 -40 214 -40 218 -40 b 543 -136 276 -40 476 -62 b 579 -51 546 -136 579 -68 b 465 -14 569 -46 522 -24 b 626 388 471 50 578 296 b 633 419 631 397 633 408 b 618 457 633 449 628 447 b 640 456 625 456 633 456 b 803 483 735 456 788 474 b 817 499 808 488 813 492 b 832 544 824 508 832 524 b 817 596 832 561 826 578 z m 496 757 b 481 743 489 753 485 747 b 467 717 474 733 467 726 b 586 644 467 665 547 644 b 700 675 644 644 700 669 b 697 681 700 679 701 671 b 696 683 696 681 696 682 l 696 685 l 694 685 b 628 674 689 683 660 674 b 522 721 561 674 533 710 b 496 757 517 728 501 747 z "},"Í":{"ha":583,"x_min":0,"x_max":0,"o":"m 817 596 b 365 565 800 533 468 565 b 19 319 214 565 19 499 b 169 176 19 194 131 176 b 239 196 218 181 239 190 b 231 206 239 206 229 206 b 181 199 226 206 210 199 b 57 311 103 199 57 239 b 321 499 57 444 201 499 b 551 465 403 499 474 475 b 418 81 529 369 460 238 b 408 26 413 57 408 39 b 413 -6 408 -8 410 1 b 208 -29 314 -6 208 -18 b 211 -40 208 -35 210 -39 b 214 -42 213 -42 213 -42 b 226 -40 214 -40 218 -40 b 543 -136 276 -40 476 -62 b 579 -51 546 -136 579 -68 b 465 -14 569 -46 522 -24 b 626 388 471 50 578 296 b 633 419 631 397 633 408 b 618 457 633 449 628 447 b 640 456 625 456 633 456 b 803 483 735 456 788 474 b 817 499 808 488 813 492 b 832 544 824 508 832 524 b 817 596 832 561 826 578 z m 671 757 b 644 721 665 747 650 728 b 539 674 633 710 606 674 b 472 685 507 674 478 683 l 471 683 b 469 681 471 682 469 682 l 467 675 b 581 644 467 669 522 644 b 701 708 618 644 701 661 b 671 757 701 725 675 757 z "},"Î":{"ha":583,"x_min":0,"x_max":0,"o":"m 817 596 b 365 565 800 533 468 565 b 19 319 214 565 19 499 b 169 176 19 194 131 176 b 239 196 218 181 239 190 b 231 206 239 206 229 206 b 181 199 226 206 210 199 b 57 311 103 199 57 239 b 321 499 57 444 201 499 b 551 465 403 499 474 475 b 418 81 529 369 460 238 b 408 26 413 57 408 39 b 413 -6 408 -8 410 1 b 208 -29 314 -6 208 -18 b 211 -40 208 -35 210 -39 b 214 -42 213 -42 213 -42 b 226 -40 214 -40 218 -40 b 543 -136 276 -40 476 -62 b 579 -51 546 -136 579 -68 b 465 -14 569 -46 522 -24 b 626 388 471 50 578 296 b 633 419 631 397 633 408 b 618 457 633 449 628 447 b 640 456 625 456 633 456 b 803 483 735 456 788 474 b 817 499 808 488 813 492 b 832 544 824 508 832 524 b 817 596 832 561 826 578 z m 733 625 b 663 642 726 626 694 626 b 594 717 607 664 636 717 b 499 672 578 717 563 672 b 436 683 467 672 440 682 l 431 675 b 521 643 431 669 474 643 b 586 663 543 643 565 647 b 696 608 614 619 663 608 b 738 617 731 608 738 613 b 733 624 738 618 733 619 z "},"Ï":{"ha":583,"x_min":0,"x_max":0,"o":"m 817 596 b 365 565 800 533 468 565 b 19 319 214 565 19 499 b 169 176 19 194 131 176 b 239 196 218 181 239 190 b 231 206 239 206 229 206 b 181 199 226 206 210 199 b 57 311 103 199 57 239 b 321 499 57 444 201 499 b 551 465 403 499 474 475 b 418 81 529 369 460 238 b 408 26 413 57 408 39 b 413 -6 408 -8 410 1 b 208 -29 314 -6 208 -18 b 211 -40 208 -35 210 -39 b 214 -42 213 -42 213 -42 b 226 -40 214 -40 218 -40 b 543 -136 276 -40 476 -62 b 579 -51 546 -136 579 -68 b 465 -14 569 -46 522 -24 b 626 388 471 50 578 296 b 633 419 631 397 633 408 b 618 457 633 449 628 447 b 640 456 625 456 633 456 b 803 483 735 456 788 474 b 817 499 808 488 813 492 b 832 544 824 508 832 524 b 817 596 832 561 826 578 z m 611 729 b 614 717 613 725 614 721 b 603 657 614 672 603 668 b 635 629 603 631 624 629 l 643 629 b 642 642 642 632 642 636 b 663 707 642 688 663 697 b 611 729 663 731 614 726 z m 514 729 b 517 715 515 725 517 721 b 506 656 517 664 506 671 b 538 629 506 632 526 629 l 546 629 b 544 640 544 631 544 635 b 554 678 544 653 547 665 b 564 696 557 685 560 690 b 565 706 565 697 565 701 b 514 729 565 733 518 725 z "},"Ñ":{"ha":844,"x_min":0,"x_max":0,"o":"m 924 540 b 882 575 918 556 899 565 b 850 589 872 579 861 585 b 839 543 849 576 844 561 l 829 514 b 664 -8 835 525 664 71 b 607 183 632 35 607 94 b 672 447 607 283 640 382 b 671 449 672 449 672 449 b 683 493 675 461 683 482 b 599 553 683 508 600 553 b 589 500 597 540 593 518 b 581 467 586 490 583 479 l 581 465 b 504 228 569 428 538 328 b 224 -37 464 106 399 -37 b 47 171 96 -37 47 64 b 115 356 47 243 61 290 b 282 440 158 407 228 440 b 344 406 311 440 332 429 b 431 449 364 410 431 419 b 290 508 396 464 365 508 b 13 160 135 501 13 338 b 240 -87 13 -6 103 -87 b 553 172 401 -87 486 17 b 721 -68 582 26 638 -67 b 921 488 721 15 872 406 b 924 540 928 504 933 525 z m 728 692 b 826 664 754 682 792 664 b 899 721 881 664 899 700 b 853 751 899 749 864 751 b 803 708 849 708 826 708 b 676 725 774 708 721 725 b 636 683 656 725 636 710 b 639 671 636 679 638 675 l 643 667 b 650 671 650 667 649 671 b 649 682 650 672 649 676 b 675 706 649 688 651 706 b 728 692 693 706 707 697 z "},"Ò":{"ha":614,"x_min":0,"x_max":0,"o":"m 178 -47 b 428 31 289 -65 361 -29 b 444 28 435 29 440 28 b 643 176 593 17 643 165 b 635 185 643 178 642 185 b 572 107 625 185 628 163 b 464 67 544 81 514 63 b 581 349 513 126 569 239 b 474 567 585 431 571 560 b 271 294 350 578 282 415 b 376 49 264 211 281 93 l 393 40 b 215 -22 342 -14 286 -28 b 67 178 132 -15 56 43 b 286 497 78 325 190 457 b 313 529 307 513 313 524 b 288 610 317 556 289 610 b 250 583 281 603 265 593 b 222 567 240 578 232 572 b 8 175 111 500 1 331 b 178 -47 13 64 65 -25 z m 329 254 b 458 483 336 351 403 488 b 507 304 479 483 518 444 b 421 75 500 225 456 128 b 329 254 347 107 322 182 z m 357 757 b 342 743 350 753 346 747 b 328 717 335 733 328 726 b 447 644 328 665 408 644 b 561 675 506 644 561 669 b 558 681 561 679 563 671 b 557 683 557 681 557 682 l 557 685 l 556 685 b 489 674 550 683 521 674 b 383 721 422 674 394 710 b 357 757 378 728 363 747 z "},"Ó":{"ha":614,"x_min":0,"x_max":0,"o":"m 178 -47 b 428 31 289 -65 361 -29 b 444 28 435 29 440 28 b 643 176 593 17 643 165 b 635 185 643 178 642 185 b 572 107 625 185 628 163 b 464 67 544 81 514 63 b 581 349 513 126 569 239 b 474 567 585 431 571 560 b 271 294 350 578 282 415 b 376 49 264 211 281 93 l 393 40 b 215 -22 342 -14 286 -28 b 67 178 132 -15 56 43 b 286 497 78 325 190 457 b 313 529 307 513 313 524 b 288 610 317 556 289 610 b 250 583 281 603 265 593 b 222 567 240 578 232 572 b 8 175 111 500 1 331 b 178 -47 13 64 65 -25 z m 329 254 b 458 483 336 351 403 488 b 507 304 479 483 518 444 b 421 75 500 225 456 128 b 329 254 347 107 322 182 z m 529 757 b 503 721 524 747 508 728 b 397 674 492 710 464 674 b 331 685 365 674 336 683 l 329 683 b 328 681 329 682 328 682 l 325 675 b 439 644 325 669 381 644 b 560 708 476 644 560 661 b 529 757 560 725 533 757 z "},"Ô":{"ha":614,"x_min":0,"x_max":0,"o":"m 178 -47 b 428 31 289 -65 361 -29 b 444 28 435 29 440 28 b 643 176 593 17 643 165 b 635 185 643 178 642 185 b 572 107 625 185 628 163 b 464 67 544 81 514 63 b 581 349 513 126 569 239 b 474 567 585 431 571 560 b 271 294 350 578 282 415 b 376 49 264 211 281 93 l 393 40 b 215 -22 342 -14 286 -28 b 67 178 132 -15 56 43 b 286 497 78 325 190 457 b 313 529 307 513 313 524 b 288 610 317 556 289 610 b 250 583 281 603 265 593 b 222 567 240 578 232 572 b 8 175 111 500 1 331 b 178 -47 13 64 65 -25 z m 329 254 b 458 483 336 351 403 488 b 507 304 479 483 518 444 b 421 75 500 225 456 128 b 329 254 347 107 322 182 z m 599 625 b 528 642 592 626 560 626 b 460 717 472 664 501 717 b 364 672 443 717 428 672 b 301 683 332 672 306 682 l 296 675 b 386 643 296 669 339 643 b 451 663 408 643 431 647 b 561 608 479 619 528 608 b 603 617 596 608 603 613 b 599 624 603 618 599 619 z "},"Õ":{"ha":614,"x_min":0,"x_max":0,"o":"m 178 -47 b 428 31 289 -65 361 -29 b 444 28 435 29 440 28 b 643 176 593 17 643 165 b 635 185 643 178 642 185 b 572 107 625 185 628 163 b 464 67 544 81 514 63 b 581 349 513 126 569 239 b 474 567 585 431 571 560 b 271 294 350 578 282 415 b 376 49 264 211 281 93 l 393 40 b 215 -22 342 -14 286 -28 b 67 178 132 -15 56 43 b 286 497 78 325 190 457 b 313 529 307 513 313 524 b 288 610 317 556 289 610 b 250 583 281 603 265 593 b 222 567 240 578 232 572 b 8 175 111 500 1 331 b 178 -47 13 64 65 -25 z m 329 254 b 458 483 336 351 403 488 b 507 304 479 483 518 444 b 421 75 500 225 456 128 b 329 254 347 107 322 182 z m 407 692 b 506 664 433 682 471 664 b 578 721 560 664 578 700 b 532 751 578 749 543 751 b 482 708 528 708 506 708 b 356 725 453 708 400 725 b 315 683 335 725 315 710 b 318 671 315 679 317 675 l 322 667 b 329 671 329 667 328 671 b 328 682 329 672 328 676 b 354 706 328 688 331 706 b 407 692 372 706 386 697 z "},"Ö":{"ha":614,"x_min":0,"x_max":0,"o":"m 178 -47 b 428 31 289 -65 361 -29 b 444 28 435 29 440 28 b 643 176 593 17 643 165 b 635 185 643 178 642 185 b 572 107 625 185 628 163 b 464 67 544 81 514 63 b 581 349 513 126 569 239 b 474 567 585 431 571 560 b 271 294 350 578 282 415 b 376 49 264 211 281 93 l 393 40 b 215 -22 342 -14 286 -28 b 67 178 132 -15 56 43 b 286 497 78 325 190 457 b 313 529 307 513 313 524 b 288 610 317 556 289 610 b 250 583 281 603 265 593 b 222 567 240 578 232 572 b 8 175 111 500 1 331 b 178 -47 13 64 65 -25 z m 329 254 b 458 483 336 351 403 488 b 507 304 479 483 518 444 b 421 75 500 225 456 128 b 329 254 347 107 322 182 z m 468 729 b 471 717 469 725 471 721 b 460 657 471 672 460 668 b 492 629 460 631 481 629 l 500 629 b 499 642 499 632 499 636 b 519 707 499 688 519 697 b 468 729 519 731 471 726 z m 371 729 b 374 715 372 725 374 721 b 363 656 374 664 363 671 b 394 629 363 632 383 629 l 403 629 b 401 640 401 631 401 635 b 411 678 401 653 404 665 b 421 696 414 685 417 690 b 422 706 422 697 422 701 b 371 729 422 733 375 725 z "},"Ø":{"ha":614,"x_min":0,"x_max":0,"o":"m 178 -47 b 8 175 65 -25 13 64 b 222 567 1 331 111 500 b 250 583 232 572 240 578 b 288 610 265 593 281 603 b 313 529 289 610 317 556 b 286 497 313 524 307 513 b 67 178 190 457 78 325 b 215 -22 56 43 132 -15 b 393 40 286 -28 342 -14 l 376 49 b 271 294 281 93 264 211 b 474 567 282 415 350 578 b 581 349 571 560 585 431 b 464 67 569 239 513 126 b 572 107 514 63 544 81 b 635 185 628 163 625 185 b 643 176 642 185 643 178 b 444 28 643 165 593 17 b 428 31 440 28 435 29 b 178 -47 361 -29 289 -65 z m 329 254 b 458 483 336 351 403 488 b 507 304 479 483 518 444 b 421 75 500 225 456 128 b 329 254 347 107 322 182 z m 428 568 b 335 664 457 653 374 644 b 331 597 335 647 332 615 b 161 -74 325 544 172 -24 b 163 -76 161 -75 161 -75 b 168 -81 164 -79 167 -81 b 175 -82 169 -82 172 -82 b 428 568 168 -82 339 281 z "},"Ù":{"ha":744,"x_min":0,"x_max":0,"o":"m 718 64 b 760 156 750 108 760 150 b 747 163 760 157 757 163 b 744 161 746 161 744 161 b 624 40 707 76 656 40 b 600 69 608 40 600 50 b 768 492 600 165 742 432 b 775 525 772 501 775 513 b 696 594 775 569 703 590 b 685 549 696 583 690 565 b 675 518 681 539 678 528 b 543 117 657 485 558 253 b 542 113 542 115 542 114 b 393 15 510 58 454 15 b 251 121 326 15 251 64 b 375 456 256 242 331 368 b 381 489 379 468 381 479 b 306 556 381 533 313 551 b 285 482 307 535 285 483 b 169 367 282 474 246 403 b 8 319 90 314 8 338 b 79 306 8 310 25 306 b 224 339 119 306 174 317 b 176 144 208 290 176 226 b 378 -43 176 26 283 -43 b 549 38 450 -43 511 -11 b 614 -1 569 6 588 -1 b 718 64 671 -1 700 42 z m 453 757 b 438 743 446 753 442 747 b 424 717 431 733 424 726 b 543 644 424 665 504 644 b 657 675 601 644 657 669 b 654 681 657 679 658 671 b 653 683 653 681 653 682 l 653 685 l 651 685 b 585 674 646 683 617 674 b 479 721 518 674 490 710 b 453 757 474 728 458 747 z "},"Ú":{"ha":744,"x_min":0,"x_max":0,"o":"m 718 64 b 760 156 750 108 760 150 b 747 163 760 157 757 163 b 744 161 746 161 744 161 b 624 40 707 76 656 40 b 600 69 608 40 600 50 b 768 492 600 165 742 432 b 775 525 772 501 775 513 b 696 594 775 569 703 590 b 685 549 696 583 690 565 b 675 518 681 539 678 528 b 543 117 657 485 558 253 b 542 113 542 115 542 114 b 393 15 510 58 454 15 b 251 121 326 15 251 64 b 375 456 256 242 331 368 b 381 489 379 468 381 479 b 306 556 381 533 313 551 b 285 482 307 535 285 483 b 169 367 282 474 246 403 b 8 319 90 314 8 338 b 79 306 8 310 25 306 b 224 339 119 306 174 317 b 176 144 208 290 176 226 b 378 -43 176 26 283 -43 b 549 38 450 -43 511 -11 b 614 -1 569 6 588 -1 b 718 64 671 -1 700 42 z m 606 757 b 579 721 600 747 585 728 b 474 674 568 710 540 674 b 407 685 442 674 413 683 l 406 683 b 404 681 406 682 404 682 l 401 675 b 515 644 401 669 457 644 b 636 708 553 644 636 661 b 606 757 636 725 610 757 z "},"Û":{"ha":744,"x_min":0,"x_max":0,"o":"m 718 64 b 760 156 750 108 760 150 b 747 163 760 157 757 163 b 744 161 746 161 744 161 b 624 40 707 76 656 40 b 600 69 608 40 600 50 b 768 492 600 165 742 432 b 775 525 772 501 775 513 b 696 594 775 569 703 590 b 685 549 696 583 690 565 b 675 518 681 539 678 528 b 543 117 657 485 558 253 b 542 113 542 115 542 114 b 393 15 510 58 454 15 b 251 121 326 15 251 64 b 375 456 256 242 331 368 b 381 489 379 468 381 479 b 306 556 381 533 313 551 b 285 482 307 535 285 483 b 169 367 282 474 246 403 b 8 319 90 314 8 338 b 79 306 8 310 25 306 b 224 339 119 306 174 317 b 176 144 208 290 176 226 b 378 -43 176 26 283 -43 b 549 38 450 -43 511 -11 b 614 -1 569 6 588 -1 b 718 64 671 -1 700 42 z m 679 625 b 608 642 672 626 640 626 b 540 717 553 664 582 717 b 444 672 524 717 508 672 b 382 683 413 672 386 682 l 376 675 b 467 643 376 669 419 643 b 532 663 489 643 511 647 b 642 608 560 619 608 608 b 683 617 676 608 683 613 b 679 624 683 618 679 619 z "},"Ü":{"ha":744,"x_min":0,"x_max":0,"o":"m 718 64 b 760 156 750 108 760 150 b 747 163 760 157 757 163 b 744 161 746 161 744 161 b 624 40 707 76 656 40 b 600 69 608 40 600 50 b 768 492 600 165 742 432 b 775 525 772 501 775 513 b 696 594 775 569 703 590 b 685 549 696 583 690 565 b 675 518 681 539 678 528 b 543 117 657 485 558 253 b 542 113 542 115 542 114 b 393 15 510 58 454 15 b 251 121 326 15 251 64 b 375 456 256 242 331 368 b 381 489 379 468 381 479 b 306 556 381 533 313 551 b 285 482 307 535 285 483 b 169 367 282 474 246 403 b 8 319 90 314 8 338 b 79 306 8 310 25 306 b 224 339 119 306 174 317 b 176 144 208 290 176 226 b 378 -43 176 26 283 -43 b 549 38 450 -43 511 -11 b 614 -1 569 6 588 -1 b 718 64 671 -1 700 42 z m 569 729 b 572 717 571 725 572 721 b 561 657 572 672 561 668 b 593 629 561 631 582 629 l 601 629 b 600 642 600 632 600 636 b 621 707 600 688 621 697 b 569 729 621 731 572 726 z m 472 729 b 475 715 474 725 475 721 b 464 656 475 664 464 671 b 496 629 464 632 485 629 l 504 629 b 503 640 503 631 503 635 b 513 678 503 653 506 665 b 522 696 515 685 518 690 b 524 706 524 697 524 701 b 472 729 524 733 476 725 z "},"Ý":{"ha":607,"x_min":0,"x_max":0,"o":"m 736 -33 b 507 -104 722 -51 629 -104 b 381 -90 467 -104 424 -97 b 435 21 399 -56 417 -19 b 488 -3 451 3 471 -3 b 633 158 611 -3 631 158 l 633 156 b 624 161 633 160 631 161 b 621 160 622 160 621 160 l 619 160 b 497 39 582 75 529 39 b 474 74 476 39 474 53 b 539 286 474 150 539 282 b 546 321 544 301 546 311 b 472 388 546 358 479 388 b 425 194 468 319 447 281 b 231 -1 399 132 371 -1 b 79 129 151 -1 79 50 b 189 414 79 215 147 335 b 228 488 201 438 217 467 l 228 489 b 146 567 228 538 158 563 b 135 521 146 556 140 538 l 125 492 b 18 154 92 410 18 240 b 217 -43 14 25 100 -43 b 354 11 271 -43 321 -24 b 319 -81 344 -21 331 -54 b 222 -65 286 -71 257 -61 b 149 -143 204 -69 149 -81 b 238 -210 149 -211 228 -210 b 356 -135 281 -210 318 -189 b 568 -168 418 -151 490 -168 b 800 -101 656 -168 740 -150 l 800 -100 l 801 -99 b 739 -33 801 -93 750 -33 z m 178 -142 b 232 -100 178 -110 208 -100 b 303 -117 256 -100 276 -107 b 225 -176 276 -162 249 -176 b 178 -142 201 -176 178 -165 z m 508 688 b 482 651 503 678 488 658 b 376 604 471 640 443 604 b 310 615 344 604 315 614 l 308 614 b 307 611 308 613 307 613 l 304 606 b 418 575 304 600 360 575 b 539 639 456 575 539 592 b 508 688 539 656 513 688 z "},":":{"ha":254,"x_min":0,"x_max":0,"o":"m 143 135 b 117 143 139 139 126 142 b 97 144 110 144 104 144 b 100 135 99 140 100 138 b 86 79 100 96 86 92 b 118 57 86 56 108 57 l 126 57 b 125 67 125 58 125 63 b 146 125 125 107 146 115 b 144 132 146 129 144 131 b 143 135 143 133 143 133 z m 179 290 b 153 299 175 294 163 297 b 133 300 146 300 140 300 b 136 290 135 296 136 293 b 122 235 136 251 122 247 b 154 213 122 211 144 213 l 163 213 b 161 222 161 214 161 218 b 182 281 161 263 182 271 b 181 288 182 285 181 286 b 179 290 179 289 179 289 z "},"’":{"ha":133,"x_min":0,"x_max":0,"o":"m 146 586 b 151 531 150 568 151 546 b 124 450 151 510 147 482 b 83 410 103 422 85 414 b 86 401 83 404 90 400 b 194 546 93 401 194 456 b 160 588 194 567 186 588 b 150 586 156 588 154 586 z "}}}
